<svg viewBox="0 0 1600 900" style="background-color:#030303" xmlns="http://www.w3.org/2000/svg" preserveAspectRatio="xMidYMid slice"><defs><filter id="noiseFilter"><feTurbulence type="fractalNoise" baseFrequency="0.0029" numOctaves="3" stitchTiles="stitch"></feTurbulence><feColorMatrix type="saturate" values="0"></feColorMatrix><feComponentTransfer><feFuncA type="linear" slope="0.4"></feFuncA></feComponentTransfer></filter><filter id="blur-sl1" x="-100%" y="-100%" width="300%" height="300%"><feGaussianBlur stdDeviation="0.1" result="coloredBlur"></feGaussianBlur></filter><filter id="blur-sl2" x="-100%" y="-100%" width="300%" height="300%"><feGaussianBlur stdDeviation="0" result="coloredBlur"></feGaussianBlur></filter><filter id="blur-sl3" x="-100%" y="-100%" width="300%" height="300%"><feGaussianBlur stdDeviation="0.15" result="coloredBlur"></feGaussianBlur></filter><filter id="blur-sl4" x="-100%" y="-100%" width="300%" height="300%"><feGaussianBlur stdDeviation="0" result="coloredBlur"></feGaussianBlur></filter><filter id="blur-sl5" x="-100%" y="-100%" width="300%" height="300%"><feGaussianBlur stdDeviation="0.1" result="coloredBlur"></feGaussianBlur></filter><filter id="blur-sl6" x="-100%" y="-100%" width="300%" height="300%"><feGaussianBlur stdDeviation="0" result="coloredBlur"></feGaussianBlur></filter><filter id="blur-sl7" x="-100%" y="-100%" width="300%" height="300%"><feGaussianBlur stdDeviation="0" result="coloredBlur"></feGaussianBlur></filter></defs><rect width="100%" height="100%" fill="#030303"></rect><g><g transform="translate(800 180) scale(5.9 0.018) translate(-800 -180)"><g id="shape-sl1"><rect x="-144" y="-499.67999999999995" width="1888" height="1359.36" rx="108.74879999999999" fill="#e9e9e9" opacity="0.08" filter="url(#blur-sl1)" style="mix-blend-mode:screen;transform-box:fill-box"></rect></g></g><g transform="translate(800 324) scale(5.8 0.12) translate(-800 -324)"><g id="shape-sl2"><rect x="-144" y="-355.67999999999995" width="1888" height="1359.36" rx="108.74879999999999" fill="#0a0a0a" opacity="0.92" filter="url(#blur-sl2)" style="mix-blend-mode:normal;transform-box:fill-box"></rect></g></g><g transform="translate(800 450) scale(5.5 0.018) translate(-800 -450)"><g id="shape-sl3"><rect x="-144" y="-229.67999999999995" width="1888" height="1359.36" rx="108.74879999999999" fill="#7cffe4" opacity="0.14" filter="url(#blur-sl3)" style="mix-blend-mode:screen;transform-box:fill-box"></rect></g></g><g transform="translate(800 558) scale(5.7 0.09) translate(-800 -558)"><g id="shape-sl4"><rect x="-144" y="-121.67999999999995" width="1888" height="1359.36" rx="108.74879999999999" fill="#121212" opacity="0.84" filter="url(#blur-sl4)" style="mix-blend-mode:normal;transform-box:fill-box"></rect></g></g><g transform="translate(800 684) scale(5.8 0.016) translate(-800 -684)"><g id="shape-sl5"><rect x="-144" y="4.32000000000005" width="1888" height="1359.36" rx="108.74879999999999" fill="#f2f2f2" opacity="0.07" filter="url(#blur-sl5)" style="mix-blend-mode:screen;transform-box:fill-box"></rect></g></g><g transform="translate(416 468) scale(1.3 0.12) translate(-416 -468)"><g id="shape-sl6"><rect x="288" y="375.84000000000003" width="256" height="184.32" rx="14.7456" fill="#f4f4f4" opacity="0.18" filter="url(#blur-sl6)" style="mix-blend-mode:difference;transform-box:fill-box"></rect></g></g><g transform="translate(1184 468) scale(1.5 0.1) translate(-1184 -468)"><g id="shape-sl7"><rect x="1040" y="364.32" width="288" height="207.35999999999999" rx="16.5888" fill="#f4f4f4" opacity="0.14" filter="url(#blur-sl7)" style="mix-blend-mode:difference;transform-box:fill-box"></rect></g></g></g><rect width="100%" height="100%" filter="url(#noiseFilter)" opacity="1" style="mix-blend-mode:overlay"></rect></svg>