<svg viewBox="0 0 1600 900" style="background-color:#2e0202" xmlns="http://www.w3.org/2000/svg" preserveAspectRatio="xMidYMid slice"><defs><filter id="noiseFilter"><feTurbulence type="fractalNoise" baseFrequency="0.0015" numOctaves="3" stitchTiles="stitch"></feTurbulence><feColorMatrix type="saturate" values="0"></feColorMatrix><feComponentTransfer><feFuncA type="linear" slope="0.15"></feFuncA></feComponentTransfer></filter><filter id="blur-lava1" x="-100%" y="-100%" width="300%" height="300%"><feGaussianBlur stdDeviation="50" result="coloredBlur"></feGaussianBlur></filter><filter id="blur-lava2" x="-100%" y="-100%" width="300%" height="300%"><feGaussianBlur stdDeviation="40" result="coloredBlur"></feGaussianBlur></filter></defs><rect width="100%" height="100%" fill="#2e0202"></rect><g><g transform="translate(80 0)"><g id="shape-lava1"><path d="M 1260.7735664471984 720 C 1260.7735664471984 913.2149751149118 898.7539977841079 1257.2523512542248 720 1257.2523512542248 C 541.2460022158921 1257.2523512542248 188.24957974255088 913.2149751149119 188.24957974255085 720.0000000000001 C 188.24957974255082 526.7850248850883 541.246002215892 97.96250056475402 719.9999999999999 97.96250056475401 C 898.7539977841078 97.962500564754 1260.7735664471984 526.7850248850882 1260.7735664471984 720 Z" fill="#ff4500" opacity="0.8" filter="url(#blur-lava1)" style="mix-blend-mode:screen;transform-box:fill-box"></path></g></g><g transform="translate(240 -290)"><g id="shape-lava2"><path d="M 1113.7665243968368 560 C 1119.378754173716 704.920594850013 462.76236383244407 1042.9204141817813 325.8268559873105 965.599783198122 C 188.89134814217695 888.2791522144628 160.8301992577809 163.67617796439794 292.1534773260353 96.07621409804426 C 423.4767553942896 28.476250231690585 1108.1542946199575 415.079405149987 1113.7665243968368 560 Z" fill="#ff8c00" opacity="0.7" filter="url(#blur-lava2)" style="mix-blend-mode:screen;transform-box:fill-box"></path></g></g></g><rect width="100%" height="100%" filter="url(#noiseFilter)" opacity="1" style="mix-blend-mode:overlay"></rect></svg>