<svg viewBox="0 0 1600 900" style="background-color:#02030b" xmlns="http://www.w3.org/2000/svg" preserveAspectRatio="xMidYMid slice"><defs><filter id="noiseFilter"><feTurbulence type="fractalNoise" baseFrequency="0.0012" numOctaves="3" stitchTiles="stitch"></feTurbulence><feColorMatrix type="saturate" values="0"></feColorMatrix><feComponentTransfer><feFuncA type="linear" slope="0.16"></feFuncA></feComponentTransfer></filter><filter id="blur-ds1" x="-100%" y="-100%" width="300%" height="300%"><feGaussianBlur stdDeviation="132" result="coloredBlur"></feGaussianBlur></filter><filter id="blur-ds2" x="-100%" y="-100%" width="300%" height="300%"><feGaussianBlur stdDeviation="28" result="coloredBlur"></feGaussianBlur></filter><filter id="blur-ds3" x="-100%" y="-100%" width="300%" height="300%"><feGaussianBlur stdDeviation="22" result="coloredBlur"></feGaussianBlur></filter><filter id="blur-ds4" x="-100%" y="-100%" width="300%" height="300%"><feGaussianBlur stdDeviation="0.2" result="coloredBlur"></feGaussianBlur></filter><filter id="blur-ds5" x="-100%" y="-100%" width="300%" height="300%"><feGaussianBlur stdDeviation="0.2" result="coloredBlur"></feGaussianBlur></filter><filter id="blur-ds6" x="-100%" y="-100%" width="300%" height="300%"><feGaussianBlur stdDeviation="0" result="coloredBlur"></feGaussianBlur></filter><filter id="blur-ds7" x="-100%" y="-100%" width="300%" height="300%"><feGaussianBlur stdDeviation="0" result="coloredBlur"></feGaussianBlur></filter></defs><rect width="100%" height="100%" fill="#02030b"></rect><g><g transform="translate(-736 -912) rotate(-18 1344 1344) translate(1344 1344) scale(2.8 0.54) translate(-1344 -1344)"><g id="shape-ds1"><path d="M 2498.471876513958 1344 C 2506.6021132889923 1623.0951879677968 2261.1601757285257 2068.8455168023024 2036.1036664334551 2211.8705472584907 C 1811.0471571383848 2354.895577714679 1401.7184756297247 2280.224785416335 1148.1328207435354 2202.1501827371303 C 894.5471658573462 2124.0755800579254 604.3996759369345 1945.4189257233372 514.5897371163196 1743.4229311832607 C 424.77979829570467 1541.4269366431843 504.46918027320197 1203.2156441346085 609.2731878198458 990.1742154966716 C 714.0771953664896 777.1327868587348 913.7389394022823 540.6534920298001 1143.4137823961826 465.1743593556398 C 1373.0886253900828 389.6952266814796 1761.4792300969511 390.82847934431686 1987.3222457832471 537.2994194517103 C 2213.165261469543 683.7703595591037 2490.3416397389233 1064.9048120322032 2498.471876513958 1344 Z" fill="#173b8a" opacity="0.18" filter="url(#blur-ds1)" style="mix-blend-mode:screen;transform-box:fill-box"></path></g></g><g transform="rotate(-10 864 342) translate(864 342) scale(3.6 0.16) translate(-864 -342)"><g id="shape-ds2"><rect x="0" y="-280.0799999999999" width="1728" height="1244.1599999999999" rx="99.5328" fill="#090d18" opacity="0.28" filter="url(#blur-ds2)" style="mix-blend-mode:multiply;transform-box:fill-box"></rect></g></g><g transform="rotate(8 736 540) translate(736 540) scale(2.4 0.12) translate(-736 -540)"><g id="shape-ds3"><rect x="64" y="56.160000000000025" width="1344" height="967.68" rx="77.4144" fill="#10172d" opacity="0.16" filter="url(#blur-ds3)" style="mix-blend-mode:multiply;transform-box:fill-box"></rect></g></g><g><g id="shape-ds4"><circle cx="22%" cy="20%" r="0.6%" fill="#ffffff" opacity="0.62" filter="url(#blur-ds4)" style="mix-blend-mode:normal;transform-box:fill-box"></circle></g></g><g><g id="shape-ds5"><circle cx="72%" cy="22%" r="0.7%" fill="#d8e7ff" opacity="0.58" filter="url(#blur-ds5)" style="mix-blend-mode:normal;transform-box:fill-box"></circle></g></g><g><g id="shape-ds6"><circle cx="32%" cy="72%" r="0.55%" fill="#ffffff" opacity="0.46" filter="url(#blur-ds6)" style="mix-blend-mode:normal;transform-box:fill-box"></circle></g></g><g><g id="shape-ds7"><circle cx="76%" cy="78%" r="0.65%" fill="#e6efff" opacity="0.44" filter="url(#blur-ds7)" style="mix-blend-mode:normal;transform-box:fill-box"></circle></g></g></g><rect width="100%" height="100%" filter="url(#noiseFilter)" opacity="1" style="mix-blend-mode:overlay"></rect></svg>