<svg viewBox="0 0 1600 900" style="background-color:#fff7f9" xmlns="http://www.w3.org/2000/svg" preserveAspectRatio="xMidYMid slice"><defs><filter id="noiseFilter"><feTurbulence type="fractalNoise" baseFrequency="0.0015" numOctaves="3" stitchTiles="stitch"></feTurbulence><feColorMatrix type="saturate" values="0"></feColorMatrix><feComponentTransfer><feFuncA type="linear" slope="0.12"></feFuncA></feComponentTransfer></filter><filter id="blur-han1" x="-100%" y="-100%" width="300%" height="300%"><feGaussianBlur stdDeviation="4" result="coloredBlur"></feGaussianBlur></filter><filter id="blur-han2" x="-100%" y="-100%" width="300%" height="300%"><feGaussianBlur stdDeviation="4" result="coloredBlur"></feGaussianBlur></filter><filter id="blur-han3" x="-100%" y="-100%" width="300%" height="300%"><feGaussianBlur stdDeviation="4" result="coloredBlur"></feGaussianBlur></filter><filter id="blur-han4" x="-100%" y="-100%" width="300%" height="300%"><feGaussianBlur stdDeviation="4" result="coloredBlur"></feGaussianBlur></filter><filter id="blur-han5" x="-100%" y="-100%" width="300%" height="300%"><feGaussianBlur stdDeviation="5" result="coloredBlur"></feGaussianBlur></filter><filter id="blur-han6" x="-100%" y="-100%" width="300%" height="300%"><feGaussianBlur stdDeviation="5" result="coloredBlur"></feGaussianBlur></filter><filter id="blur-han7" x="-100%" y="-100%" width="300%" height="300%"><feGaussianBlur stdDeviation="24" result="coloredBlur"></feGaussianBlur></filter></defs><rect width="100%" height="100%" fill="#fff7f9"></rect><g><g transform="translate(160 34) rotate(-22 128 128) translate(128 128) scale(2.4 0.28) translate(-128 -128)"><g id="shape-han1"><path d="M 230.10011724233627 128 C 228.47612333099048 153.06290347077635 103.15752235352996 222.7522620618008 79.71779606938364 211.62723030922933 C 56.27806978523732 200.50219855665787 64.39803934196628 75.18768120277618 89.46175953745839 61.24980948457129 C 114.5254797329505 47.3119377663664 231.72411115368206 102.93709652922367 230.10011724233627 128 Z" fill="#f2b8cb" opacity="0.5" filter="url(#blur-han1)" style="mix-blend-mode:multiply;transform-box:fill-box"></path></g></g><g transform="translate(400 72) rotate(-12 144 144) translate(144 144) scale(2.6 0.26) translate(-144 -144)"><g id="shape-han2"><path d="M 250.30133395045993 144 C 251.03590448498724 180.88298044644378 111.05188913941386 269.9096478436924 82.32051553577188 250.8320008766984 C 53.58914193212989 231.75435390970435 49.91628925949331 47.339451677485485 77.91309232860799 29.534118198035756 C 105.90989539772266 11.728784718586024 249.56676341593263 107.11701955355622 250.30133395045993 144 Z" fill="#d88ca8" opacity="0.56" filter="url(#blur-han2)" style="mix-blend-mode:multiply;transform-box:fill-box"></path></g></g><g transform="translate(696 44) rotate(-18 136 136) translate(136 136) scale(2.5 0.24) translate(-136 -136)"><g id="shape-han3"><path d="M 271.0629272922873 136 C 270.4675222779314 167.30908768450007 111.23579482498272 248.15998623561484 79.98485434874895 233.02107826133772 C 48.73391387251519 217.8821702870606 51.71093894429501 61.33673186456025 83.55728443488474 45.166552154337296 C 115.40362992547446 28.996372444114343 271.6583323066433 104.69091231549993 271.0629272922873 136 Z" fill="#e7a6ba" opacity="0.48" filter="url(#blur-han3)" style="mix-blend-mode:multiply;transform-box:fill-box"></path></g></g><g transform="translate(992 124.00000000000003) rotate(-8 128 128) translate(128 128) scale(2.7 0.24) translate(-128 -128)"><g id="shape-han4"><path d="M 224.52225645780564 128 C 221.83006622294587 159.90731753610498 88.61013099948569 251.3331370524123 64.65833418965343 237.71098341956878 C 40.70653737982117 224.08882978672526 54.16748855412001 64.55224210620031 80.81147559881205 46.26707820293885 C 107.45546264350409 27.981914299677385 227.2144466926654 96.09268246389502 224.52225645780564 128 Z" fill="#c77d97" opacity="0.5" filter="url(#blur-han4)" style="mix-blend-mode:multiply;transform-box:fill-box"></path></g></g><g transform="translate(336.00000000000006 392.00000000000006) rotate(-30 112.00000000000001 112.00000000000001) translate(112.00000000000001 112.00000000000001) scale(2.2 0.3) translate(-112.00000000000001 -112.00000000000001)"><g id="shape-han5"><path d="M 195.33961422443392 112.00000000000001 C 197.36138817754886 137.62535663072438 95.97912816790246 192.93421018699917 73.68090221285823 178.37062426752976 C 51.382676257814 163.80703834806036 41.2738064922392 35.680255194438466 61.55025849416849 24.618484483183508 C 81.82671049609777 13.55671377192855 193.31784027131897 86.37464336927565 195.33961422443392 112.00000000000001 Z" fill="#f5c7d7" opacity="0.44" filter="url(#blur-han5)" style="mix-blend-mode:multiply;transform-box:fill-box"></path></g></g><g transform="translate(888 472) rotate(-16 104 104) translate(104 104) scale(2.1 0.3) translate(-104 -104)"><g id="shape-han6"><path d="M 196.42161595448852 104 C 195.3449602533132 127.24686493535816 82.08134838435801 190.0260832154895 60.5052817117423 179.33506193615762 C 38.92921503912659 168.64404065682572 44.31249354500321 52.4097159800349 66.96521591879424 39.853872324008634 C 89.61793829258528 27.298028667982365 197.49827165566384 80.75313506464184 196.42161595448852 104 Z" fill="#efb3c4" opacity="0.46" filter="url(#blur-han6)" style="mix-blend-mode:multiply;transform-box:fill-box"></path></g></g><g><g id="shape-han7"><circle cx="72%" cy="26%" r="13%" fill="#fff5f8" opacity="0.18" filter="url(#blur-han7)" style="mix-blend-mode:overlay;transform-box:fill-box"></circle></g></g></g><rect width="100%" height="100%" filter="url(#noiseFilter)" opacity="1" style="mix-blend-mode:overlay"></rect></svg>