<svg viewBox="0 0 1600 900" style="background-color:#03101b" xmlns="http://www.w3.org/2000/svg" preserveAspectRatio="xMidYMid slice"><defs><filter id="noiseFilter"><feTurbulence type="fractalNoise" baseFrequency="0.0013" numOctaves="3" stitchTiles="stitch"></feTurbulence><feColorMatrix type="saturate" values="0"></feColorMatrix><feComponentTransfer><feFuncA type="linear" slope="0.14"></feFuncA></feComponentTransfer></filter><filter id="blur-an1" x="-100%" y="-100%" width="300%" height="300%"><feGaussianBlur stdDeviation="66" result="coloredBlur"></feGaussianBlur></filter><filter id="blur-an2" x="-100%" y="-100%" width="300%" height="300%"><feGaussianBlur stdDeviation="72" result="coloredBlur"></feGaussianBlur></filter><filter id="blur-an3" x="-100%" y="-100%" width="300%" height="300%"><feGaussianBlur stdDeviation="10" result="coloredBlur"></feGaussianBlur></filter><filter id="blur-an4" x="-100%" y="-100%" width="300%" height="300%"><feGaussianBlur stdDeviation="18" result="coloredBlur"></feGaussianBlur></filter><filter id="blur-an5" x="-100%" y="-100%" width="300%" height="300%"><feGaussianBlur stdDeviation="10" result="coloredBlur"></feGaussianBlur></filter></defs><rect width="100%" height="100%" fill="#03101b"></rect><g><g transform="translate(-704 -808) rotate(-18 1312 1312) translate(1312 1312) scale(4.2 0.22) translate(-1312 -1312)"><g id="shape-an1"><path d="M 2568.838918197155 1312 C 2576.171303168436 1582.9810840171247 2121.0209505262474 1975.6396371436613 1803.3501603215934 2163.043441984113 C 1485.6793701169393 2350.447246824565 915.885204316676 2578.2634027067297 662.8141769692305 2436.422829042711 C 409.74314962178505 2294.582255378692 274.4837218073509 1668.724523923927 284.9239962369204 1312.0000000000002 C 295.3642706664899 955.2754760760733 479.71718117048283 425.21619585225585 725.4558235466475 296.0756854991499 C 971.1944659228121 166.93517514604403 1452.1253347188235 367.8362187978899 1759.355850493908 537.1569378813649 C 2066.5863662689926 706.47765696484 2561.506533225874 1041.0189159828753 2568.838918197155 1312 Z" fill="#1ad1d6" opacity="0.2" filter="url(#blur-an1)" style="mix-blend-mode:screen;transform-box:fill-box"></path></g></g><g transform="translate(-16 -726) rotate(20 1104 1104) translate(1104 1104) scale(3.4 0.24) translate(-1104 -1104)"><g id="shape-an2"><path d="M 1868.9760555446148 1104 C 1862.947570884973 1343.9755427873254 1704.0276938717814 1662.754520446896 1501.5643787026406 1792.6017031925276 C 1299.1010635334999 1922.448885938159 837.2914175510409 1997.8500470058773 654.1961645297708 1883.0830964737893 C 471.10091150850076 1768.3161459417013 388.903506929055 1339.2908891306452 402.99286057502036 1104 C 417.0822142209857 868.709110869355 549.608548724651 596.546353945156 738.732286405563 471.3377616899187 C 927.8560240864749 346.12916943468133 1349.3613251373172 247.30474008356214 1537.7352866604924 352.7484464685757 C 1726.1092481836677 458.1921528535893 1875.0045402042567 864.0244572126747 1868.9760555446148 1104 Z" fill="#4c5eff" opacity="0.18" filter="url(#blur-an2)" style="mix-blend-mode:screen;transform-box:fill-box"></path></g></g><g transform="rotate(-22 864 432) translate(864 432) scale(0.14 3.2) translate(-864 -432)"><g id="shape-an3"><rect x="352" y="63.360000000000014" width="1024" height="737.28" rx="58.9824" fill="#f1c17a" opacity="0.14" filter="url(#blur-an3)" style="mix-blend-mode:screen;transform-box:fill-box"></rect></g></g><g><g id="shape-an4"><circle cx="54%" cy="46%" r="19%" fill="#ffd388" opacity="0.16" filter="url(#blur-an4)" style="mix-blend-mode:screen;transform-box:fill-box"></circle></g></g><g transform="rotate(24 800 450) translate(800 450) scale(2.4 0.1) translate(-800 -450)"><g id="shape-an5"><rect x="351.99999999999994" y="127.44" width="896.0000000000001" height="645.12" rx="51.6096" fill="#7fdcff" opacity="0.1" filter="url(#blur-an5)" style="mix-blend-mode:screen;transform-box:fill-box"></rect></g></g></g><rect width="100%" height="100%" filter="url(#noiseFilter)" opacity="1" style="mix-blend-mode:overlay"></rect></svg>