<svg xmlns="http://www.w3.org/2000/svg" preserveAspectRatio="xMidYMid slice" style="background-color:#0c0e0b" viewBox="0 0 1920 1080"><defs><filter id="noiseFilter"><feTurbulence baseFrequency=".004" numOctaves="3" stitchTiles="stitch" type="fractalNoise"/><feColorMatrix type="saturate" values="0"/><feComponentTransfer><feFuncA slope=".48" type="linear"/></feComponentTransfer></filter><filter id="blur-rand-c-1765523114094-0" width="300%" height="300%" x="-100%" y="-100%"><feGaussianBlur result="coloredBlur" stdDeviation="19.638"/></filter><filter id="blur-rand-c-1765523114094-1" width="300%" height="300%" x="-100%" y="-100%"><feGaussianBlur result="coloredBlur" stdDeviation="12.855"/></filter><filter id="blur-rand-c-1765523114094-2" width="300%" height="300%" x="-100%" y="-100%"><feGaussianBlur result="coloredBlur" stdDeviation="34.518"/></filter><style>@keyframes noise-shift{0%,to{transform:translate(0,0)}25%{transform:translate(-1%,1%)}50%{transform:translate(1%,-1%)}75%{transform:translate(-1%,-1%)}}@keyframes move-rand-c-1765523114094-0{0%{transform:translate(0,0) scale(1) rotate(0deg)}33%{transform:translate(-7%,-5%) scale(1.04) rotate(9deg)}66%{transform:translate(5%,-8%) scale(.96) rotate(18deg)}to{transform:translate(0,0) scale(1) rotate(30deg)}}@keyframes move-rand-c-1765523114094-1{0%{transform:translate(0,0) scale(1) rotate(0deg)}33%{transform:translate(-7%,5%) scale(1.04) rotate(-9deg)}66%{transform:translate(5%,8%) scale(.96) rotate(-18deg)}to{transform:translate(0,0) scale(1) rotate(-30deg)}}@keyframes move-rand-c-1765523114094-2{0%{transform:translate(0,0) scale(1) rotate(0deg)}33%{transform:translate(7%,5%) scale(1.04) rotate(9deg)}66%{transform:translate(-5%,8%) scale(.96) rotate(18deg)}to{transform:translate(0,0) scale(1) rotate(30deg)}}</style></defs><rect width="100%" height="100%" fill="hsl(114, 10%, 5%)"/><circle cx="52.652%" cy="62.814%" r="54.46%" fill="hsl(223.94755205812936, 100%, 50%)" filter="url(#blur-rand-c-1765523114094-0)" opacity=".866" style="transform-origin:52.65215239864233% 62.81359089908005%;animation:move-rand-c-1765523114094-0 3.2s ease-in-out infinite alternate;animation-delay:0s;mix-blend-mode:exclusion"/><path fill="hsl(24.97168454816731, 100%, 50%)" d="M1806.41 978.8c-16.384 198.797-228.68 383.403-401.16 534.752s-435.274 401.13-633.717 373.342-469.473-329.966-556.94-540.072c-87.466-210.107-63.258-519.158 32.139-720.568s330.773-436.973 540.244-487.887c209.472-50.914 546.679 42.331 716.585 182.403 169.905 140.072 319.235 459.233 302.85 658.03" filter="url(#blur-rand-c-1765523114094-1)" opacity=".984" style="transform-origin:29.906201147990803% 85.25991064149757%;animation:move-rand-c-1765523114094-1 3.68s ease-in-out infinite alternate;animation-delay:-9s;mix-blend-mode:color-dodge;transform-box:fill-box;transform:translate(-404.6005241326143px,-57.99255124586398px)"/><path fill="hsl(159.4413709191227, 100%, 50%)" d="M1187.112 639.167c-10.747 121.035-68.657 265-147.453 336.053s-221.793 82.568-325.321 90.263-222.915 4.974-295.848-44.094-84.243-152.288-141.75-250.31C219.233 673.06 46.3 512.852 73.448 433.262s253.694-70.868 366.172-139.72C552.098 224.687 637.563 27.566 748.317 20.144s282.691 125.692 355.824 228.862c73.132 103.17 93.718 269.124 82.97 390.16" filter="url(#blur-rand-c-1765523114094-2)" opacity=".559" style="transform-origin:30.72981809890635% 54.85608128853045%;animation:move-rand-c-1765523114094-2 4.16s ease-in-out infinite alternate;animation-delay:-8s;mix-blend-mode:hard-light;transform-box:fill-box;transform:translate(-49.1541991589703px,-46.721028741843384px)"/><rect width="100%" height="100%" filter="url(#noiseFilter)" style="mix-blend-mode:overlay"/></svg>