<svg viewBox="0 0 1600 900" style="background-color:#100502" xmlns="http://www.w3.org/2000/svg" preserveAspectRatio="xMidYMid slice"><defs><filter id="noiseFilter"><feTurbulence type="fractalNoise" baseFrequency="0.0015" numOctaves="3" stitchTiles="stitch"></feTurbulence><feColorMatrix type="saturate" values="0"></feColorMatrix><feComponentTransfer><feFuncA type="linear" slope="0.3"></feFuncA></feComponentTransfer></filter><filter id="blur-cf1" x="-100%" y="-100%" width="300%" height="300%"><feGaussianBlur stdDeviation="92" result="coloredBlur"></feGaussianBlur></filter><filter id="blur-cf2" x="-100%" y="-100%" width="300%" height="300%"><feGaussianBlur stdDeviation="20" result="coloredBlur"></feGaussianBlur></filter><filter id="blur-cf3" x="-100%" y="-100%" width="300%" height="300%"><feGaussianBlur stdDeviation="8" result="coloredBlur"></feGaussianBlur></filter><filter id="blur-cf4" x="-100%" y="-100%" width="300%" height="300%"><feGaussianBlur stdDeviation="6" result="coloredBlur"></feGaussianBlur></filter><filter id="blur-cf5" x="-100%" y="-100%" width="300%" height="300%"><feGaussianBlur stdDeviation="0.6" result="coloredBlur"></feGaussianBlur></filter></defs><rect width="100%" height="100%" fill="#100502"></rect><g><g transform="translate(-111.99999999999989 -569.9999999999999) rotate(-8 911.9999999999999 911.9999999999999) translate(911.9999999999999 911.9999999999999) scale(1.4 1.1) translate(-911.9999999999999 -911.9999999999999)"><g id="shape-cf1"><path d="M 1732.3634535536166 911.9999999999999 C 1715.9001532554623 1117.7318152290918 1426.7944668952373 1320.4676141679186 1218.9480558156965 1443.649627957274 C 1011.1016447361558 1566.8316417466297 645.2630555242301 1739.7003540623462 485.28498707637203 1651.0920827361338 C 325.3069186285139 1562.4838114099214 247.76764370538302 1138.7710663784976 259.0796451285481 912 C 270.3916465517132 685.2289336215023 376.7156268693502 407.58922836802714 553.1569956153627 290.46568446514755 C 729.5983643613752 173.34214056226796 1121.1934479482472 105.66968399358052 1317.7278576046228 209.25873658272258 C 1514.2622672609984 312.84778917186463 1748.826753851771 706.268184770908 1732.3634535536166 911.9999999999999 Z" fill="#3b211b" opacity="0.3" filter="url(#blur-cf1)" style="mix-blend-mode:soft-light;transform-box:fill-box"></path></g></g><g transform="rotate(2 800 756) translate(800 756) scale(3.2 0.24) translate(-800 -756)"><g id="shape-cf2"><rect x="224" y="341.28000000000003" width="1152" height="829.4399999999999" rx="66.3552" fill="#7a2612" opacity="0.3" filter="url(#blur-cf2)" style="mix-blend-mode:screen;transform-box:fill-box"></rect></g></g><g transform="translate(608 420) translate(192 192) scale(0.76 1.9) translate(-192 -192)"><g id="shape-cf3"><path d="M 362.6769809782505 192 C 363.0107822292266 242.68167952742868 294.3747168381372 330.0353315512401 242.40383150280516 347.12704242673885 C 190.43294616747312 364.2187533022376 83.70768106256097 338.17264121920385 50.85166896625827 294.5502652529923 C 17.995656869955575 250.92788928678073 13.676199753207229 127.31166996127371 45.267758924988954 85.39278662946946 C 76.85931809677068 43.473903297665196 187.49948698807168 25.269096367078323 240.40102399694862 43.036965262166746 C 293.30256100582557 60.80483415725517 362.34317972727445 141.31832047257132 362.6769809782505 192 Z" fill="#ea580c" opacity="0.42" filter="url(#blur-cf3)" style="mix-blend-mode:screen;transform-box:fill-box"></path></g></g><g transform="translate(560 432) rotate(-10 144 144) translate(144 144) scale(0.6 1.7) translate(-144 -144)"><g id="shape-cf4"><path d="M 249.60668658167123 144 C 249.6804056929059 179.80038004513014 212.1554067407719 240.8665992249184 179.11790316156288 252.08179242045688 C 146.08039958235386 263.29698561599537 72.3287160902489 240.27127292914918 51.38166510641706 211.29115917323088 C 30.434614122585216 182.31104541731258 32.21994336061553 107.20305105553962 53.43559725857182 78.20110988494714 C 74.6512511565281 49.19916871435467 145.9804069403049 26.313030463833925 178.6755884941548 37.279512149676066 C 211.3707700480047 48.245993835518206 249.53296747043655 108.19961995486986 249.60668658167123 144 Z" fill="#ffd166" opacity="0.28" filter="url(#blur-cf4)" style="mix-blend-mode:screen;transform-box:fill-box"></path></g></g><g><g id="shape-cf5"><circle cx="58%" cy="28%" r="0.8%" fill="#ffd166" opacity="0.34" filter="url(#blur-cf5)" style="mix-blend-mode:screen;transform-box:fill-box"></circle></g></g></g><rect width="100%" height="100%" filter="url(#noiseFilter)" opacity="1" style="mix-blend-mode:overlay"></rect></svg>