<svg viewBox="0 0 1600 900" style="background-color:#031a29" xmlns="http://www.w3.org/2000/svg" preserveAspectRatio="xMidYMid slice"><defs><filter id="noiseFilter"><feTurbulence type="fractalNoise" baseFrequency="0.00125" numOctaves="3" stitchTiles="stitch"></feTurbulence><feColorMatrix type="saturate" values="0"></feColorMatrix><feComponentTransfer><feFuncA type="linear" slope="0.18"></feFuncA></feComponentTransfer></filter><filter id="blur-rc1" x="-100%" y="-100%" width="300%" height="300%"><feGaussianBlur stdDeviation="58" result="coloredBlur"></feGaussianBlur></filter><filter id="blur-rc2" x="-100%" y="-100%" width="300%" height="300%"><feGaussianBlur stdDeviation="34" result="coloredBlur"></feGaussianBlur></filter><filter id="blur-rc3" x="-100%" y="-100%" width="300%" height="300%"><feGaussianBlur stdDeviation="10" result="coloredBlur"></feGaussianBlur></filter><filter id="blur-rc4" x="-100%" y="-100%" width="300%" height="300%"><feGaussianBlur stdDeviation="14" result="coloredBlur"></feGaussianBlur></filter></defs><rect width="100%" height="100%" fill="#031a29"></rect><g><g transform="translate(-528 -618) rotate(-14 1104 1104) translate(1104 1104) scale(3.2 0.3) translate(-1104 -1104)"><g id="shape-rc1"><path d="M 2018.38305298537 1104 C 2020.584536835164 1372.073866860579 1655.1065719179558 1833.5180612083268 1371.9118897143414 1928.5480123873406 C 1088.7172075107271 2023.5779635663544 486.61314773397373 1900.7847148707976 319.2149597636842 1674.179707074082 C 151.81677179339465 1447.5746992773663 194.27475741728855 794.597114915416 367.5227618926042 568.9179656070467 C 540.7707663679198 343.2388162986773 1083.5596047667837 230.92447215837336 1358.702986615578 320.10481122386557 C 1633.8463684643725 409.2851502893578 2016.1815691355762 835.9261331394209 2018.38305298537 1104 Z" fill="#06b6d4" opacity="0.34" filter="url(#blur-rc1)" style="mix-blend-mode:screen;transform-box:fill-box"></path></g></g><g transform="translate(288 -418) rotate(18 832 832) translate(832 832) scale(2.4 0.24) translate(-832 -832)"><g id="shape-rc2"><path d="M 1510.1778474628927 832 C 1514.9517096047186 1016.9990689588805 1243.6642917941344 1355.5260534357565 1026.6511102939478 1431.0745176445675 C 809.6379287937613 1506.6229818533786 323.7856729301282 1445.617616529937 208.0987584617734 1285.2907852528665 C 92.4118439934186 1124.963953975796 200.87809365361602 629.8153102090748 332.5296234838191 469.11352998214454 C 464.18115331402214 308.41174975521426 801.7332334464795 260.5990255549754 998.0079374429918 321.08010389128464 C 1194.282641439504 381.56118222759386 1505.4039853210668 647.0009310411195 1510.1778474628927 832 Z" fill="#3b82f6" opacity="0.22" filter="url(#blur-rc2)" style="mix-blend-mode:screen;transform-box:fill-box"></path></g></g><g transform="translate(1024 406) rotate(8 224.00000000000003 224.00000000000003) translate(224.00000000000003 224.00000000000003) scale(1.1 0.9) translate(-224.00000000000003 -224.00000000000003)"><g id="shape-rc3"><path d="M 416.41197941899304 224.00000000000003 C 416.41197941899304 280.4062231903275 280.5191941713294 409.00801573395734 224.00000000000003 409.00801573395734 C 167.48080582867067 409.00801573395734 77.29681439101697 280.4062231903275 77.29681439101697 224.00000000000006 C 77.29681439101697 167.59377680967256 167.48080582867064 70.5706765919924 224 70.5706765919924 C 280.51919417132933 70.5706765919924 416.41197941899304 167.59377680967253 416.41197941899304 224.00000000000003 Z" fill="#ff8a5b" opacity="0.14" filter="url(#blur-rc3)" style="mix-blend-mode:screen;transform-box:fill-box"></path></g></g><g transform="rotate(-10 896.0000000000001 198) translate(896.0000000000001 198) scale(2.8 0.12) translate(-896.0000000000001 -198)"><g id="shape-rc4"><rect x="304.0000000000001" y="-228.24" width="1184" height="852.48" rx="68.1984" fill="#d8fbff" opacity="0.1" filter="url(#blur-rc4)" style="mix-blend-mode:screen;transform-box:fill-box"></rect></g></g></g><rect width="100%" height="100%" filter="url(#noiseFilter)" opacity="1" style="mix-blend-mode:overlay"></rect></svg>