<svg xmlns="http://www.w3.org/2000/svg" fill="none" viewBox="0 0 128 128"><mask id="a" width="128" height="128" x="0" y="0" maskUnits="userSpaceOnUse" style="mask-type:alpha"><path fill="#000" d="M128 0H0v128h128z"/></mask><g mask="url(#a)"><circle cx="63.375" cy="62.875" r="57.5" fill="#15142b"/><circle cx="63.375" cy="62.875" r="57" stroke="url(#b)" stroke-opacity=".3"/><g filter="url(#c)"><mask id="f" fill="#fff"><path d="M63.269 67.526c23.47 0 43.534 11.046 51.632 29.56h-3.87c-.051.002-5.016.242-8.182-.494-4.274-.994-6.874-2.339-8.404-3.43-7.279-7.615-18.146-12.29-29.2-12.29q-1.108.001-2.212.052l-.125-.051-.249.067c-10.011.52-19.585 4.046-26.222 10.139-5.888 3.206-9.773 5.414-17.226 5.414-2.211 0-4.77-.115-7.19-.265 8.337-17.997 28.142-28.702 51.248-28.702"/></mask><path fill="url(#d)" fill-opacity=".8" d="M63.269 67.526c23.47 0 43.534 11.046 51.632 29.56h-3.87c-.051.002-5.016.242-8.182-.494-4.274-.994-6.874-2.339-8.404-3.43-7.279-7.615-18.146-12.29-29.2-12.29q-1.108.001-2.212.052l-.125-.051-.249.067c-10.011.52-19.585 4.046-26.222 10.139-5.888 3.206-9.773 5.414-17.226 5.414-2.211 0-4.77-.115-7.19-.265 8.337-17.997 28.142-28.702 51.248-28.702"/><path fill="url(#e)" fill-opacity=".3" d="M63.269 67.526v-1zm51.632 29.56v1h1.529l-.612-1.401zm-3.87 0v-1h-.048zm-8.182-.494-.227.974zm-8.404-3.43-.723.692.066.068.077.055zm-29.2-12.29v-1zm-2.212.052-.376.926.202.082.218-.01zm-.125-.051.377-.927-.311-.126-.324.087zm-.249.067.052.999.108-.006.104-.028zM36.437 91.08l.478.878.107-.058.09-.083zM19.21 96.493v1zm-7.19-.265-.907-.42-.615 1.328 1.46.09zm51.25-28.702v1c23.179 0 42.816 10.9 50.716 28.96l.916-.4.917-.401c-8.297-18.967-28.79-30.159-52.55-30.159zm51.632 29.56v-1h-3.87v2h3.87zm-3.87 0-.048-1c-.078.005-4.901.23-7.908-.468l-.226.974-.227.974c3.325.773 8.433.52 8.458.519zm-8.182-.494.226-.974c-4.167-.97-6.642-2.266-8.05-3.27l-.58.815-.58.814c1.651 1.178 4.376 2.57 8.757 3.589zm-8.404-3.43.723-.69c-7.471-7.817-18.6-12.6-29.923-12.6v2c10.786 0 21.39 4.567 28.477 11.982zm-29.2-12.29v-1q-1.133.002-2.256.053l.044.999.044.999q1.085-.049 2.168-.05zm-2.212.052.377-.927-.125-.05-.377.926-.376.926.125.051zm-.125-.051-.258-.966h-.002l-.004.001-.014.004-.05.014-.184.05.263.964.264.965.243-.066zm-.249.067-.052-.998c-10.195.529-20.005 4.12-26.847 10.4l.677.737.676.737c6.434-5.906 15.77-9.367 25.598-9.877zM36.437 91.08l-.479-.878c-5.88 3.202-9.569 5.292-16.747 5.292v2c7.728 0 11.809-2.326 17.704-5.536zM19.21 96.493v-1c-2.181 0-4.717-.114-7.128-.263l-.062.998-.061.998c2.427.15 5.01.267 7.25.267zm-7.19-.265.908.42c8.134-17.558 27.52-28.122 50.34-28.122v-2c-23.392 0-43.615 10.847-52.155 29.282z" mask="url(#f)"/><path fill="url(#g)" fill-opacity=".8" d="M59.745 17.624c5.511-2.166 15.422-.989 15.422-.989L56.334 52.918l-9.417 18.14-4.708 9.071-2.354 4.536s-1.15 2.943-2.354 4.535c-2.261 2.99-5.12 4.248-7.91 5.437-1.898.81-2.938 1.091-4.942 1.582-1.339.328-12.161 0-12.161 0-.243.17-.55-.103-.407-.362 2.601-4.725 13.363-24.284 20.477-37.403 4.025-7.425 6.22-11.622 10.182-19.08 2.05-3.86 3.09-6.083 5.24-9.887 1.056-1.867 2.768-4.745 2.768-4.745s2.12-3.02 3.955-4.449c1.757-1.369 2.968-1.854 5.042-2.67"/><path stroke="url(#h)" stroke-opacity=".3" d="M69.519 16.818c1.569.011 2.97.09 3.976.166q.52.04.888.076L55.89 52.687l-9.416 18.141-4.708 9.07-2.355 4.536-.013.024-.01.025v.002l-.048.122a33 33 0 0 1-.663 1.517c-.436.929-1.007 2.023-1.575 2.775-2.173 2.872-4.916 4.088-7.706 5.278-1.863.794-2.874 1.069-4.867 1.557q-.171.044-.813.08c-.415.022-.94.036-1.538.044-1.196.015-2.67.004-4.105-.016a375 375 0 0 1-5.103-.11l-.247-.007c2.92-5.303 13.334-24.232 20.274-37.032 4.027-7.428 6.223-11.629 10.185-19.085 2.061-3.88 3.085-6.076 5.233-9.874.526-.93 1.217-2.114 1.776-3.067l.703-1.191.209-.352.055-.093.008-.014.014-.02.068-.095q.092-.128.26-.356c.225-.301.544-.718.918-1.178.755-.928 1.714-2.003 2.584-2.68 1.697-1.322 2.851-1.787 4.918-2.599 2.66-1.045 6.432-1.295 9.59-1.271Z"/><path fill="url(#i)" fill-opacity=".8" d="M73.486 19.48 63.205 39.57l22.649 41.6 6.244 9.365s2.326 3.11 5.115 4.299c1.898.81 2.939 1.091 4.943 1.582 1.339.328 3.559.494 3.559.494l6.675-.13h3.122L94.396 58.293z"/><path stroke="url(#j)" stroke-opacity=".3" d="M63.771 39.563 86.28 80.907l6.219 9.331.003.005.019.024a12 12 0 0 0 .366.452c.255.3.623.716 1.075 1.166.914.91 2.14 1.932 3.448 2.49 1.862.794 2.873 1.069 4.865 1.556.637.156 1.5.277 2.22.359a39 39 0 0 0 1.163.115l.067.005 6.655-.13h2.287l-20.71-37.745-.001-.004-20.457-37.977z"/></g></g><defs><radialGradient id="b" cx="0" cy="0" r="1" gradientTransform="matrix(-25.6475 28.7047 -33.5671 -13.6865 68.71 61.39)" gradientUnits="userSpaceOnUse"><stop stop-color="#fff"/><stop offset="1" stop-color="#fff9f9" stop-opacity="0"/></radialGradient><radialGradient id="e" cx="0" cy="0" r="1" gradientTransform="matrix(-18.2534 7.09804 -23.8898 -3.38437 57.044 82.466)" gradientUnits="userSpaceOnUse"><stop stop-color="#fff"/><stop offset="1" stop-color="#fff9f9" stop-opacity="0"/></radialGradient><radialGradient id="h" cx="0" cy="0" r="1" gradientTransform="rotate(121.114 3.85 39.752)scale(22.5752 17.8335)" gradientUnits="userSpaceOnUse"><stop stop-color="#fff"/><stop offset="1" stop-color="#fff9f9" stop-opacity="0"/></radialGradient><radialGradient id="j" cx="0" cy="0" r="1" gradientTransform="rotate(58.886 -7.198 105.602)scale(22.5752 17.8335)" gradientUnits="userSpaceOnUse"><stop stop-color="#fff"/><stop offset="1" stop-color="#fff9f9" stop-opacity="0"/></radialGradient><linearGradient id="d" x1="94.633" x2="89.088" y1="71.919" y2="105.482" gradientUnits="userSpaceOnUse"><stop offset=".043" stop-color="#fff"/><stop offset=".188" stop-color="#7541ef"/><stop offset=".466" stop-color="#3c03c1"/><stop offset=".764" stop-color="#885ee9"/><stop offset=".909" stop-color="#fff"/></linearGradient><linearGradient id="g" x1="75.167" x2="19.211" y1="16.316" y2="89.375" gradientUnits="userSpaceOnUse"><stop offset=".173" stop-color="#fffa72" stop-opacity=".9"/><stop offset=".601" stop-color="#c276f8"/><stop offset=".942" stop-color="#ca9a5c" stop-opacity=".9"/></linearGradient><linearGradient id="i" x1="54.634" x2="113.951" y1="31.219" y2="78.049" gradientUnits="userSpaceOnUse"><stop offset=".12" stop-color="red" stop-opacity=".9"/><stop offset=".769" stop-color="#da087c"/><stop offset="1" stop-color="#ff0381" stop-opacity=".9"/></linearGradient><filter id="c" width="217.491" height="204.809" x="-44.978" y="16.316" color-interpolation-filters="sRGB" filterUnits="userSpaceOnUse"><feFlood flood-opacity="0" result="BackgroundImageFix"/><feColorMatrix in="SourceAlpha" result="hardAlpha" values="0 0 0 0 0 0 0 0 0 0 0 0 0 0 0 0 0 0 127 0"/><feOffset dy="67"/><feGaussianBlur stdDeviation="28.5"/><feColorMatrix values="0 0 0 0 0 0 0 0 0 0 0 0 0 0 0 0 0 0 0.25 0"/><feBlend in2="BackgroundImageFix" result="effect1_dropShadow_115_45"/><feBlend in="SourceGraphic" in2="effect1_dropShadow_115_45" result="shape"/></filter></defs></svg>