<svg width="128" height="128" viewBox="0 0 128 128" fill="none" xmlns="http://www.w3.org/2000/svg">
<mask id="mask0_110_152" style="mask-type:alpha" maskUnits="userSpaceOnUse" x="0" y="0" width="128" height="128">
<path d="M128 0H0V128H128V0Z" fill="black"/>
</mask>
<g mask="url(#mask0_110_152)">
<circle cx="63.375" cy="62.875" r="56" stroke="url(#paint0_linear_110_152)" stroke-opacity="0.8" stroke-width="3"/>
<g filter="url(#filter0_ddd_110_152)">
<mask id="path-3-inside-1_110_152" fill="white">
<path d="M63.2686 67.5262C86.7384 67.5264 106.803 78.5717 114.901 97.0858H111.031C110.99 97.0878 106.018 97.3286 102.849 96.5917C98.5725 95.5972 95.9723 94.2518 94.4434 93.161C87.1642 85.5462 76.2984 80.8729 65.2451 80.8729C64.5063 80.8729 63.7687 80.8911 63.0332 80.9237L62.9082 80.8729C62.9022 80.8745 62.8167 80.8976 62.6602 80.9403C52.6481 81.4596 43.0733 84.9858 36.4355 91.079C30.5481 94.285 26.6637 96.493 19.2109 96.493C17 96.493 14.4406 96.3781 12.0215 96.2284C20.3584 78.2312 40.1633 67.5264 63.2686 67.5262Z"/>
</mask>
<path d="M63.2686 67.5262C86.7384 67.5264 106.803 78.5717 114.901 97.0858H111.031C110.99 97.0878 106.018 97.3286 102.849 96.5917C98.5725 95.5972 95.9723 94.2518 94.4434 93.161C87.1642 85.5462 76.2984 80.8729 65.2451 80.8729C64.5063 80.8729 63.7687 80.8911 63.0332 80.9237L62.9082 80.8729C62.9022 80.8745 62.8167 80.8976 62.6602 80.9403C52.6481 81.4596 43.0733 84.9858 36.4355 91.079C30.5481 94.285 26.6637 96.493 19.2109 96.493C17 96.493 14.4406 96.3781 12.0215 96.2284C20.3584 78.2312 40.1633 67.5264 63.2686 67.5262Z" fill="url(#paint1_linear_110_152)" fill-opacity="0.8"/>
<path d="M63.2686 67.5262L63.2686 66.5262L63.2685 66.5262L63.2686 67.5262ZM114.901 97.0858V98.0858H116.43L115.818 96.6851L114.901 97.0858ZM111.031 97.0858V96.0858H111.007L110.983 96.087L111.031 97.0858ZM102.849 96.5917L102.622 97.5657L102.622 97.5657L102.849 96.5917ZM94.4434 93.161L93.7205 93.852L93.7857 93.9202L93.8626 93.9751L94.4434 93.161ZM65.2451 80.8729L65.2451 79.8729L65.2451 79.8729L65.2451 80.8729ZM63.0332 80.9237L62.6568 81.8502L62.8592 81.9324L63.0775 81.9227L63.0332 80.9237ZM62.9082 80.8729L63.2846 79.9465L62.9739 79.8202L62.6499 79.9069L62.9082 80.8729ZM62.6602 80.9403L62.712 81.939L62.8196 81.9334L62.9236 81.905L62.6602 80.9403ZM36.4355 91.079L36.9138 91.9572L37.0215 91.8986L37.1118 91.8157L36.4355 91.079ZM19.2109 96.493L19.2109 97.493H19.2109V96.493ZM12.0215 96.2284L11.1141 95.8081L10.4989 97.1361L11.9597 97.2265L12.0215 96.2284ZM63.2686 67.5262L63.2685 68.5262C86.4478 68.5264 106.085 79.4252 113.985 97.4866L114.901 97.0858L115.818 96.6851C107.521 77.7182 87.0289 66.5264 63.2686 66.5262L63.2686 67.5262ZM114.901 97.0858V96.0858H111.031V97.0858V98.0858H114.901V97.0858ZM111.031 97.0858L110.983 96.087C110.915 96.0903 106.085 96.3176 103.075 95.6177L102.849 96.5917L102.622 97.5657C105.95 98.3397 111.065 98.0854 111.08 98.0846L111.031 97.0858ZM102.849 96.5917L103.075 95.6177C98.9063 94.6481 96.4309 93.3507 95.0242 92.347L94.4434 93.161L93.8626 93.9751C95.5136 95.153 98.2387 96.5463 102.622 97.5657L102.849 96.5917ZM94.4434 93.161L95.1662 92.47C87.6949 84.6542 76.5664 79.8729 65.2451 79.8729V80.8729V81.8729C76.0305 81.8729 86.6334 86.4382 93.7205 93.852L94.4434 93.161ZM65.2451 80.8729L65.2451 79.8729C64.4899 79.8729 63.7375 79.8915 62.9889 79.9247L63.0332 80.9237L63.0775 81.9227C63.7999 81.8907 64.5226 81.8729 65.2451 81.8729L65.2451 80.8729ZM63.0332 80.9237L63.4096 79.9972L63.2846 79.9465L62.9082 80.8729L62.5318 81.7994L62.6568 81.8502L63.0332 80.9237ZM62.9082 80.8729L62.6499 79.9069C62.6413 79.9092 62.5538 79.9327 62.3967 79.9756L62.6602 80.9403L62.9236 81.905C63.0012 81.8838 63.0611 81.8675 63.1022 81.8564C63.1228 81.8508 63.1386 81.8465 63.1496 81.8435C63.1551 81.8421 63.1593 81.8409 63.1623 81.8401C63.1657 81.8392 63.1668 81.8389 63.1665 81.839L62.9082 80.8729ZM62.6602 80.9403L62.6084 79.9416C52.4122 80.4705 42.6009 84.062 35.7593 90.3423L36.4355 91.079L37.1118 91.8157C43.5457 85.9096 52.884 82.4487 62.712 81.939L62.6602 80.9403ZM36.4355 91.079L35.9573 90.2008C30.077 93.4029 26.3886 95.493 19.2109 95.493V96.493V97.493C26.9388 97.493 31.0193 95.1671 36.9138 91.9572L36.4355 91.079ZM19.2109 96.493L19.2109 95.493C17.0299 95.493 14.4939 95.3795 12.0833 95.2303L12.0215 96.2284L11.9597 97.2265C14.3874 97.3767 16.9701 97.493 19.2109 97.493L19.2109 96.493ZM12.0215 96.2284L12.9289 96.6487C21.0627 79.0897 40.4499 68.5264 63.2686 68.5262L63.2686 67.5262L63.2685 66.5262C39.8767 66.5264 19.654 77.3726 11.1141 95.8081L12.0215 96.2284Z" fill="url(#paint2_radial_110_152)" fill-opacity="0.3" mask="url(#path-3-inside-1_110_152)"/>
<path d="M59.7446 17.624C65.2564 15.4576 75.1671 16.6354 75.1671 16.6354L56.3339 52.9177L46.9173 71.0589L42.209 80.1295L39.8548 84.6647C39.8548 84.6647 38.7045 87.6085 37.5007 89.2C35.2397 92.1894 32.3812 93.4477 29.5917 94.6374C27.6935 95.4471 26.6531 95.7286 24.6486 96.2192C23.3101 96.5469 12.4878 96.2192 12.4878 96.2192C12.245 96.3894 11.9378 96.1165 12.0808 95.8567C14.682 91.1324 25.4443 71.5735 32.5576 58.454C36.5833 51.0291 38.7778 46.8325 42.7404 39.3736C44.7904 35.5149 45.8292 33.2909 47.98 29.4875C49.0361 27.6199 50.7482 24.7421 50.7482 24.7421C50.7482 24.7421 52.8687 21.7216 54.7026 20.2933C56.4604 18.9243 57.6711 18.439 59.7446 17.624Z" fill="url(#paint3_linear_110_152)" fill-opacity="0.8"/>
<path d="M69.5186 16.8177C71.0879 16.8295 72.4881 16.9078 73.4951 16.9838C73.8405 17.0098 74.1393 17.0375 74.3828 17.0599L55.8896 52.6869L46.4736 70.8285L41.7656 79.8988L39.4111 84.434L39.3984 84.4584L39.3887 84.4828V84.4847L39.3398 84.6068C39.3068 84.6884 39.2576 84.8074 39.1953 84.9554C39.0706 85.2517 38.8923 85.6633 38.6768 86.1234C38.2413 87.0527 37.6702 88.147 37.1016 88.8988C34.9287 91.7715 32.1859 92.9869 29.3955 94.1771C27.533 94.9715 26.5217 95.246 24.5293 95.7338C24.4142 95.7618 24.1448 95.7912 23.7158 95.8138C23.3014 95.8357 22.776 95.8501 22.1777 95.8578C20.9816 95.8731 19.5081 95.8626 18.0732 95.8422C16.6392 95.8217 15.2463 95.7906 14.2119 95.765C13.695 95.7522 13.2678 95.7411 12.9697 95.7328C12.8736 95.7301 12.7906 95.7269 12.7227 95.725C15.6422 90.4218 26.0567 71.4935 32.9971 58.6927C37.0241 51.2653 39.2202 47.0646 43.1816 39.6078C45.2431 35.7274 46.2674 33.5316 48.415 29.7338C48.9409 28.8038 49.6316 27.6198 50.1914 26.6674C50.4709 26.1917 50.7178 25.7745 50.8945 25.476C50.9829 25.3266 51.0538 25.2066 51.1025 25.1244C51.1267 25.0836 51.1455 25.0521 51.1582 25.0306C51.1611 25.0257 51.1637 25.0208 51.166 25.017C51.1696 25.012 51.174 25.0054 51.1797 24.9974C51.1951 24.9758 51.218 24.9435 51.248 24.9017C51.3083 24.8182 51.3968 24.6967 51.5088 24.5463C51.733 24.2451 52.0516 23.8286 52.4258 23.3685C53.181 22.4401 54.14 21.3653 55.0098 20.6879C56.7074 19.3657 57.8614 18.9014 59.9277 18.0892C62.5878 17.0437 66.3598 16.7942 69.5186 16.8177Z" stroke="url(#paint4_radial_110_152)" stroke-opacity="0.3"/>
<path d="M73.4863 19.4794L63.2047 39.5714L85.8537 81.1707L92.0976 90.5365C92.0976 90.5365 94.4237 93.6454 97.2132 94.8352C99.1113 95.6448 100.152 95.9263 102.156 96.417C103.495 96.7446 105.715 96.9113 105.715 96.9113L112.39 96.7804H115.512L94.3956 58.2942L73.4863 19.4794Z" fill="url(#paint5_linear_110_152)" fill-opacity="0.8"/>
<path d="M63.771 39.5634L86.2798 80.9071L92.4985 90.2382L92.5024 90.243C92.5063 90.2481 92.5128 90.2568 92.521 90.2675C92.5374 90.2887 92.5624 90.3206 92.5952 90.3622C92.6613 90.4457 92.7601 90.568 92.8872 90.7186C93.1416 91.0201 93.5098 91.4351 93.9624 91.8856C94.8756 92.7946 96.1013 93.8168 97.4097 94.3749C99.272 95.1692 100.283 95.4438 102.275 95.9315C102.912 96.0874 103.775 96.2077 104.495 96.2899C104.851 96.3307 105.166 96.3612 105.392 96.3817C105.505 96.3919 105.596 96.4001 105.658 96.4052C105.686 96.4075 105.709 96.4088 105.725 96.41L112.38 96.2802H114.667L93.9575 58.535L93.9556 58.5311L73.4985 20.5536L63.771 39.5634Z" stroke="url(#paint6_radial_110_152)" stroke-opacity="0.3"/>
</g>
</g>
<defs>
<filter id="filter0_ddd_110_152" x="-44.9785" y="16.3158" width="217.491" height="204.809" filterUnits="userSpaceOnUse" color-interpolation-filters="sRGB">
<feFlood flood-opacity="0" result="BackgroundImageFix"/>
<feColorMatrix in="SourceAlpha" type="matrix" values="0 0 0 0 0 0 0 0 0 0 0 0 0 0 0 0 0 0 127 0" result="hardAlpha"/>
<feOffset dy="25.8074"/>
<feGaussianBlur stdDeviation="9.07778"/>
<feColorMatrix type="matrix" values="0 0 0 0 0 0 0 0 0 0 0 0 0 0 0 0 0 0 0.151852 0"/>
<feBlend mode="normal" in2="BackgroundImageFix" result="effect1_dropShadow_110_152"/>
<feColorMatrix in="SourceAlpha" type="matrix" values="0 0 0 0 0 0 0 0 0 0 0 0 0 0 0 0 0 0 127 0" result="hardAlpha"/>
<feOffset dy="43.4259"/>
<feGaussianBlur stdDeviation="16.691"/>
<feColorMatrix type="matrix" values="0 0 0 0 0 0 0 0 0 0 0 0 0 0 0 0 0 0 0.189815 0"/>
<feBlend mode="normal" in2="effect1_dropShadow_110_152" result="effect2_dropShadow_110_152"/>
<feColorMatrix in="SourceAlpha" type="matrix" values="0 0 0 0 0 0 0 0 0 0 0 0 0 0 0 0 0 0 127 0" result="hardAlpha"/>
<feOffset dy="67"/>
<feGaussianBlur stdDeviation="28.5"/>
<feColorMatrix type="matrix" values="0 0 0 0 0 0 0 0 0 0 0 0 0 0 0 0 0 0 0.25 0"/>
<feBlend mode="normal" in2="effect2_dropShadow_110_152" result="effect3_dropShadow_110_152"/>
<feBlend mode="normal" in="SourceGraphic" in2="effect3_dropShadow_110_152" result="shape"/>
</filter>
<linearGradient id="paint0_linear_110_152" x1="120.875" y1="5.375" x2="47.6204" y2="126.451" gradientUnits="userSpaceOnUse">
<stop offset="0.173077" stop-color="#FFFA72"/>
<stop offset="0.600962" stop-color="#885EE9"/>
<stop offset="0.942308" stop-color="#CA9A5C"/>
</linearGradient>
<linearGradient id="paint1_linear_110_152" x1="94.6334" y1="71.9194" x2="89.0881" y2="105.483" gradientUnits="userSpaceOnUse">
<stop offset="0.0432692" stop-color="white"/>
<stop offset="0.1875" stop-color="#7541EF"/>
<stop offset="0.466346" stop-color="#3C03C1"/>
<stop offset="0.764423" stop-color="#885EE9"/>
<stop offset="0.908654" stop-color="white"/>
</linearGradient>
<radialGradient id="paint2_radial_110_152" cx="0" cy="0" r="1" gradientTransform="matrix(-18.2534 7.09804 -23.8898 -3.38437 57.0438 82.4666)" gradientUnits="userSpaceOnUse">
<stop stop-color="white"/>
<stop offset="1" stop-color="#FFF9F9" stop-opacity="0"/>
</radialGradient>
<linearGradient id="paint3_linear_110_152" x1="75.1671" y1="16.3158" x2="19.2112" y2="89.3747" gradientUnits="userSpaceOnUse">
<stop offset="0.173077" stop-color="#FFFA72"/>
<stop offset="0.600962" stop-color="#885EE9"/>
<stop offset="0.942308" stop-color="#CA9A5C"/>
</linearGradient>
<radialGradient id="paint4_radial_110_152" cx="0" cy="0" r="1" gradientUnits="userSpaceOnUse" gradientTransform="translate(39.8734 56.9975) rotate(121.114) scale(22.5752 17.8335)">
<stop stop-color="white"/>
<stop offset="1" stop-color="#FFF9F9" stop-opacity="0"/>
</radialGradient>
<linearGradient id="paint5_linear_110_152" x1="54.6342" y1="31.2195" x2="113.951" y2="78.0487" gradientUnits="userSpaceOnUse">
<stop offset="0.120192" stop-color="#FF0000"/>
<stop offset="0.769231" stop-color="#885EE9" stop-opacity="0.6"/>
<stop offset="1" stop-color="#FF0381" stop-opacity="0.9"/>
</linearGradient>
<radialGradient id="paint6_radial_110_152" cx="0" cy="0" r="1" gradientUnits="userSpaceOnUse" gradientTransform="translate(86.9315 57.1952) rotate(58.8856) scale(22.5752 17.8335)">
<stop stop-color="white"/>
<stop offset="1" stop-color="#FFF9F9" stop-opacity="0"/>
</radialGradient>
</defs>
</svg>
