<svg width="1024" height="1024" viewBox="0 0 1024 1024" fill="none" xmlns="http://www.w3.org/2000/svg">
<mask id="mask0_115_26" style="mask-type:alpha" maskUnits="userSpaceOnUse" x="0" y="0" width="1024" height="1024">
<path d="M1024 0H0V1024H1024V0Z" fill="black"/>
</mask>
<g mask="url(#mask0_115_26)">
<circle cx="507" cy="503" r="460" fill="url(#paint0_linear_115_26)" fill-opacity="0.8"/>
<circle cx="507" cy="503" r="459.5" stroke="url(#paint1_radial_115_26)" stroke-opacity="0.3"/>
<g filter="url(#filter0_ddd_115_26)">
<mask id="path-4-inside-1_115_26" fill="white">
<path d="M506.148 540.21C693.909 540.21 854.428 628.572 919.217 776.687H888.25C888.167 776.691 848.219 778.647 822.787 772.732C788.691 764.803 767.911 754.091 755.664 745.379C697.43 684.397 610.443 646.98 521.966 646.98C516.042 646.98 510.128 647.112 504.231 647.374L503.266 646.98C503.249 646.985 502.567 647.168 501.291 647.516C421.198 651.669 344.599 679.874 291.495 728.614C244.387 754.268 213.32 771.942 153.69 771.942C136 771.942 115.52 771.035 96.1631 769.837C162.855 625.851 321.301 540.21 506.148 540.21Z"/>
</mask>
<path d="M506.148 540.21C693.909 540.21 854.428 628.572 919.217 776.687H888.25C888.167 776.691 848.219 778.647 822.787 772.732C788.691 764.803 767.911 754.091 755.664 745.379C697.43 684.397 610.443 646.98 521.966 646.98C516.042 646.98 510.128 647.112 504.231 647.374L503.266 646.98C503.249 646.985 502.567 647.168 501.291 647.516C421.198 651.669 344.599 679.874 291.495 728.614C244.387 754.268 213.32 771.942 153.69 771.942C136 771.942 115.52 771.035 96.1631 769.837C162.855 625.851 321.301 540.21 506.148 540.21Z" fill="url(#paint2_linear_115_26)" fill-opacity="0.8"/>
<path d="M506.148 540.21L506.148 539.21H506.148V540.21ZM919.217 776.687V777.687H920.746L920.133 776.286L919.217 776.687ZM888.25 776.687V775.687H888.225L888.201 775.688L888.25 776.687ZM822.787 772.732L822.561 773.706L822.561 773.706L822.787 772.732ZM755.664 745.379L754.941 746.069L755.007 746.138L755.084 746.194L755.664 745.379ZM521.966 646.98L521.966 645.98L521.966 645.98L521.966 646.98ZM504.231 647.374L503.854 648.3L504.057 648.383L504.276 648.373L504.231 647.374ZM503.266 646.98L503.643 646.054L503.332 645.927L503.007 646.014L503.266 646.98ZM501.291 647.516L501.343 648.515L501.45 648.509L501.554 648.481L501.291 647.516ZM291.495 728.614L291.973 729.492L292.081 729.434L292.171 729.351L291.495 728.614ZM153.69 771.942L153.69 772.942L153.69 772.942L153.69 771.942ZM96.1631 769.837L95.2557 769.416L94.6406 770.744L96.1013 770.835L96.1631 769.837ZM506.148 540.21L506.148 541.21C693.619 541.21 853.71 629.426 918.301 777.088L919.217 776.687L920.133 776.286C855.147 627.719 694.2 539.21 506.148 539.21L506.148 540.21ZM919.217 776.687V775.687H888.25V776.687V777.687H919.217V776.687ZM888.25 776.687L888.201 775.688C888.092 775.694 848.286 777.635 823.014 771.758L822.787 772.732L822.561 773.706C848.152 779.658 888.243 777.689 888.299 777.686L888.25 776.687ZM822.787 772.732L823.014 771.758C789.024 763.854 768.368 753.189 756.244 744.564L755.664 745.379L755.084 746.194C767.453 754.992 788.357 765.752 822.561 773.706L822.787 772.732ZM755.664 745.379L756.387 744.688C697.961 683.505 610.711 645.98 521.966 645.98L521.966 646.98L521.966 647.98C610.175 647.98 696.899 685.289 754.941 746.069L755.664 745.379ZM521.966 646.98L521.966 645.98C516.027 645.98 510.098 646.112 504.187 646.375L504.231 647.374L504.276 648.373C510.158 648.111 516.057 647.98 521.966 647.98L521.966 646.98ZM504.231 647.374L504.609 646.448L503.643 646.054L503.266 646.98L502.888 647.906L503.854 648.3L504.231 647.374ZM503.266 646.98L503.007 646.014C502.989 646.019 502.304 646.203 501.028 646.552L501.291 647.516L501.554 648.481C502.192 648.307 502.681 648.174 503.012 648.085C503.178 648.04 503.304 648.006 503.39 647.982C503.433 647.971 503.466 647.962 503.488 647.956C503.5 647.953 503.508 647.95 503.514 647.949C503.517 647.948 503.52 647.947 503.521 647.947C503.523 647.946 503.524 647.946 503.524 647.946L503.266 646.98ZM501.291 647.516L501.239 646.518C420.962 650.68 344.126 678.95 290.819 727.877L291.495 728.614L292.171 729.351C345.071 680.797 421.434 652.658 501.343 648.515L501.291 647.516ZM291.495 728.614L291.017 727.736C243.916 753.386 213.044 770.942 153.69 770.942L153.69 771.942L153.69 772.942C213.595 772.942 244.859 755.15 291.973 729.492L291.495 728.614ZM153.69 771.942L153.69 770.942C136.03 770.942 115.572 770.037 96.2249 768.839L96.1631 769.837L96.1013 770.835C115.467 772.034 135.971 772.942 153.69 772.942L153.69 771.942ZM96.1631 769.837L97.0705 770.257C163.559 626.71 321.587 541.21 506.148 541.21V540.21V539.21C321.014 539.21 162.15 624.993 95.2557 769.416L96.1631 769.837Z" fill="url(#paint3_radial_115_26)" fill-opacity="0.3" mask="url(#path-4-inside-1_115_26)"/>
<path d="M477.957 140.992C522.051 123.66 601.336 133.083 601.336 133.083L450.671 423.342L375.338 568.471L337.672 641.035L318.839 677.318C318.839 677.318 309.636 700.868 300.005 713.6C281.917 737.515 259.05 747.581 236.734 757.099C221.548 763.576 213.225 765.828 197.189 769.754C186.481 772.375 99.9024 769.754 99.9024 769.754L99.058 770.345C97.3228 771.561 95.0931 769.674 96.115 767.818C115.947 731.802 203.057 573.506 260.461 467.632C292.666 408.232 310.223 374.66 341.923 314.989C358.323 284.119 366.633 266.327 383.84 235.899C392.289 220.959 405.985 197.936 405.985 197.936C405.985 197.936 422.95 173.773 437.621 162.346C451.683 151.394 461.369 147.512 477.957 140.992Z" fill="url(#paint4_linear_115_26)" fill-opacity="0.8"/>
<path d="M556.178 131.038C568.83 131.132 580.108 131.769 588.222 132.381C592.278 132.687 595.543 132.986 597.794 133.21C598.919 133.321 599.791 133.414 600.381 133.478C600.443 133.485 600.501 133.492 600.557 133.498L450.228 423.111L374.895 568.24L337.228 640.805L318.395 677.088L318.383 677.111L318.373 677.135L318.372 677.136C318.372 677.137 318.372 677.138 318.371 677.139L318.347 677.203C318.329 677.247 318.303 677.314 318.269 677.401C318.199 677.576 318.096 677.834 317.961 678.167C317.691 678.834 317.295 679.802 316.789 681.003C315.778 683.405 314.329 686.74 312.58 690.472C309.078 697.946 304.388 706.976 299.606 713.299C281.606 737.097 258.855 747.121 236.538 756.639C221.388 763.101 213.094 765.346 197.07 769.268C195.784 769.583 193.306 769.827 189.908 770.007C186.526 770.185 182.272 770.298 177.464 770.359C167.848 770.482 156.027 770.401 144.537 770.237C133.048 770.073 121.893 769.828 113.61 769.623C109.469 769.52 106.045 769.428 103.657 769.361C102.463 769.328 101.528 769.302 100.892 769.283C100.574 769.274 100.33 769.266 100.166 769.261C100.084 769.259 100.022 769.257 99.9805 769.256C99.9599 769.255 99.9441 769.255 99.9336 769.255C99.9286 769.254 99.9245 769.254 99.9219 769.254C99.9208 769.254 99.9196 769.254 99.9189 769.254C99.9183 769.254 99.9175 769.254 99.9023 769.754L99.918 769.254L99.752 769.249L99.6152 769.344L98.7715 769.935C98.1122 770.397 97.3712 770.275 96.877 769.853C96.3864 769.435 96.1711 768.752 96.5527 768.059C116.385 732.043 203.496 573.746 260.9 467.87C293.107 408.468 310.665 374.892 342.364 315.223C358.776 284.331 367.071 266.568 384.275 236.145C388.497 228.679 394.032 219.192 398.512 211.569C400.751 207.758 402.728 204.414 404.144 202.022C404.851 200.826 405.42 199.868 405.811 199.21C406.006 198.881 406.157 198.626 406.26 198.454C406.311 198.368 406.35 198.302 406.376 198.259C406.389 198.237 406.399 198.22 406.405 198.209C406.406 198.208 406.406 198.207 406.406 198.206L406.587 197.952C406.714 197.773 406.903 197.509 407.148 197.169C407.64 196.488 408.358 195.501 409.267 194.281C411.083 191.841 413.658 188.47 416.689 184.742C422.76 177.278 430.64 168.418 437.929 162.741C451.93 151.836 461.559 147.975 478.14 141.458C500.091 132.83 530.852 130.849 556.178 131.038Z" stroke="url(#paint5_radial_115_26)" stroke-opacity="0.3"/>
<path d="M587.891 155.835L505.638 316.571L686.83 649.365L736.782 724.292C736.782 724.292 755.39 749.163 777.706 758.681C792.892 765.158 801.215 767.41 817.251 771.335C827.959 773.957 845.723 775.29 845.723 775.29L899.123 774.243H924.099L755.166 466.353L587.891 155.835Z" fill="url(#paint6_linear_115_26)" fill-opacity="0.8"/>
<path d="M506.204 316.564L687.262 649.109L737.192 724.006C737.193 724.007 737.193 724.008 737.194 724.01C737.203 724.021 737.217 724.038 737.234 724.061C737.27 724.108 737.322 724.178 737.393 724.269C737.533 724.452 737.742 724.722 738.017 725.069C738.566 725.764 739.377 726.769 740.42 728.005C742.506 730.476 745.52 733.872 749.229 737.563C756.653 744.954 766.831 753.499 777.902 758.221C793.052 764.683 801.347 766.927 817.37 770.849C822.692 772.152 829.783 773.138 835.56 773.799C838.444 774.128 840.995 774.377 842.825 774.543C843.74 774.626 844.474 774.688 844.979 774.729C845.232 774.75 845.428 774.766 845.561 774.776C845.626 774.781 845.676 774.785 845.71 774.788C845.722 774.789 845.732 774.788 845.739 774.789L899.113 773.743H923.254L754.728 466.594L754.726 466.591L587.903 156.91L506.204 316.564Z" stroke="url(#paint7_radial_115_26)" stroke-opacity="0.3"/>
</g>
</g>
<defs>
<filter id="filter0_ddd_115_26" x="38.8572" y="130.526" width="942.241" height="770.474" filterUnits="userSpaceOnUse" color-interpolation-filters="sRGB">
<feFlood flood-opacity="0" result="BackgroundImageFix"/>
<feColorMatrix in="SourceAlpha" type="matrix" values="0 0 0 0 0 0 0 0 0 0 0 0 0 0 0 0 0 0 127 0" result="hardAlpha"/>
<feOffset dy="25.8074"/>
<feGaussianBlur stdDeviation="9.07778"/>
<feColorMatrix type="matrix" values="0 0 0 0 0 0 0 0 0 0 0 0 0 0 0 0 0 0 0.151852 0"/>
<feBlend mode="normal" in2="BackgroundImageFix" result="effect1_dropShadow_115_26"/>
<feColorMatrix in="SourceAlpha" type="matrix" values="0 0 0 0 0 0 0 0 0 0 0 0 0 0 0 0 0 0 127 0" result="hardAlpha"/>
<feOffset dy="43.4259"/>
<feGaussianBlur stdDeviation="16.691"/>
<feColorMatrix type="matrix" values="0 0 0 0 0 0 0 0 0 0 0 0 0 0 0 0 0 0 0.189815 0"/>
<feBlend mode="normal" in2="effect1_dropShadow_115_26" result="effect2_dropShadow_115_26"/>
<feColorMatrix in="SourceAlpha" type="matrix" values="0 0 0 0 0 0 0 0 0 0 0 0 0 0 0 0 0 0 127 0" result="hardAlpha"/>
<feOffset dy="67"/>
<feGaussianBlur stdDeviation="28.5"/>
<feColorMatrix type="matrix" values="0 0 0 0 0 0 0 0 0 0 0 0 0 0 0 0 0 0 0.25 0"/>
<feBlend mode="normal" in2="effect2_dropShadow_115_26" result="effect3_dropShadow_115_26"/>
<feBlend mode="normal" in="SourceGraphic" in2="effect3_dropShadow_115_26" result="shape"/>
</filter>
<linearGradient id="paint0_linear_115_26" x1="1117.74" y1="182.489" x2="401.901" y2="1019.07" gradientUnits="userSpaceOnUse">
<stop offset="0.120192" stop-color="#9F0707" stop-opacity="0.9"/>
<stop offset="0.769231" stop-color="#8A024D"/>
<stop offset="1" stop-color="#BB0560" stop-opacity="0.9"/>
</linearGradient>
<radialGradient id="paint1_radial_115_26" cx="0" cy="0" r="1" gradientTransform="matrix(-205.18 229.638 -268.537 -109.492 549.685 491.117)" gradientUnits="userSpaceOnUse">
<stop stop-color="white"/>
<stop offset="1" stop-color="#FFF9F9" stop-opacity="0"/>
</radialGradient>
<linearGradient id="paint2_linear_115_26" x1="757.07" y1="575.355" x2="712.708" y2="843.861" gradientUnits="userSpaceOnUse">
<stop offset="0.0432692" stop-color="white"/>
<stop offset="0.1875" stop-color="#7541EF"/>
<stop offset="0.466346" stop-color="#3C03C1"/>
<stop offset="0.764423" stop-color="#885EE9"/>
<stop offset="0.908654" stop-color="white"/>
</linearGradient>
<radialGradient id="paint3_radial_115_26" cx="0" cy="0" r="1" gradientTransform="matrix(-146.03 56.7844 -191.122 -27.075 456.348 659.733)" gradientUnits="userSpaceOnUse">
<stop stop-color="white"/>
<stop offset="1" stop-color="#FFF9F9" stop-opacity="0"/>
</radialGradient>
<linearGradient id="paint4_linear_115_26" x1="601.336" y1="130.526" x2="153.69" y2="714.998" gradientUnits="userSpaceOnUse">
<stop offset="0.173077" stop-color="#FFFA72" stop-opacity="0.9"/>
<stop offset="0.600962" stop-color="#C276F8"/>
<stop offset="0.942308" stop-color="#CA9A5C" stop-opacity="0.9"/>
</linearGradient>
<radialGradient id="paint5_radial_115_26" cx="0" cy="0" r="1" gradientUnits="userSpaceOnUse" gradientTransform="translate(318.987 455.979) rotate(121.114) scale(180.602 142.668)">
<stop stop-color="white"/>
<stop offset="1" stop-color="#FFF9F9" stop-opacity="0"/>
</radialGradient>
<linearGradient id="paint6_linear_115_26" x1="437.074" y1="249.755" x2="911.611" y2="624.39" gradientUnits="userSpaceOnUse">
<stop offset="0.120192" stop-color="#FF0000" stop-opacity="0.9"/>
<stop offset="0.769231" stop-color="#DA087C"/>
<stop offset="1" stop-color="#FF0381" stop-opacity="0.9"/>
</linearGradient>
<radialGradient id="paint7_radial_115_26" cx="0" cy="0" r="1" gradientUnits="userSpaceOnUse" gradientTransform="translate(695.453 457.561) rotate(58.8856) scale(180.602 142.668)">
<stop stop-color="white"/>
<stop offset="1" stop-color="#FFF9F9" stop-opacity="0"/>
</radialGradient>
</defs>
</svg>
