<svg width="1024" height="1024" viewBox="0 0 1024 1024" fill="none" xmlns="http://www.w3.org/2000/svg">
<rect width="1024" height="1024" fill="#111211"/>
<mask id="mask0_93_376" style="mask-type:alpha" maskUnits="userSpaceOnUse" x="0" y="0" width="1024" height="1024">
<path d="M1024 0H0V1024H1024V0Z" fill="black"/>
</mask>
<g mask="url(#mask0_93_376)">
<path d="M1024 0H0V1024H1024V0Z" fill="#171717"/>
<circle cx="507" cy="503" r="450" stroke="url(#paint0_linear_93_376)" stroke-opacity="0.9" stroke-width="20"/>
<g filter="url(#filter0_dddddd_93_376)">
<mask id="path-4-inside-1_93_376" fill="white">
<path d="M506.148 540.21C693.909 540.21 854.429 628.572 919.218 776.687H888.25C888.116 776.694 848.202 778.643 822.787 772.732C788.69 764.803 767.91 754.091 755.664 745.379C697.43 684.397 610.443 646.98 521.966 646.98C516.042 646.98 510.128 647.112 504.231 647.374L503.265 646.98C503.244 646.986 502.563 647.169 501.292 647.516C421.199 651.669 344.598 679.873 291.495 728.614C244.387 754.268 213.319 771.942 153.69 771.942C136 771.942 115.519 771.035 96.1628 769.837C162.854 625.851 321.3 540.21 506.148 540.21Z"/>
</mask>
<path d="M506.148 540.21C693.909 540.21 854.429 628.572 919.218 776.687H888.25C888.116 776.694 848.202 778.643 822.787 772.732C788.69 764.803 767.91 754.091 755.664 745.379C697.43 684.397 610.443 646.98 521.966 646.98C516.042 646.98 510.128 647.112 504.231 647.374L503.265 646.98C503.244 646.986 502.563 647.169 501.292 647.516C421.199 651.669 344.598 679.873 291.495 728.614C244.387 754.268 213.319 771.942 153.69 771.942C136 771.942 115.519 771.035 96.1628 769.837C162.854 625.851 321.3 540.21 506.148 540.21Z" fill="url(#paint1_linear_93_376)" fill-opacity="0.8"/>
<path d="M506.148 540.21L506.148 535.21H506.148L506.148 540.21ZM919.218 776.687V781.687H926.862L923.798 774.683L919.218 776.687ZM888.25 776.687V771.687H888.127L888.005 771.693L888.25 776.687ZM822.787 772.732L821.654 777.602L821.654 777.602L822.787 772.732ZM755.664 745.379L752.048 748.832L752.377 749.177L752.765 749.453L755.664 745.379ZM521.966 646.98L521.966 641.98H521.966L521.966 646.98ZM504.231 647.374L502.344 652.004L503.359 652.417L504.453 652.369L504.231 647.374ZM503.265 646.98L505.152 642.35L503.597 641.716L501.975 642.15L503.265 646.98ZM501.292 647.516L501.551 652.51L502.089 652.482L502.609 652.34L501.292 647.516ZM291.495 728.614L293.886 733.005L294.424 732.712L294.876 732.298L291.495 728.614ZM153.69 771.942L153.69 776.942L153.69 776.942L153.69 771.942ZM96.1628 769.837L91.6259 767.735L88.5505 774.375L95.8539 774.827L96.1628 769.837ZM506.148 540.21L506.148 545.21C692.456 545.21 850.838 632.839 914.637 778.691L919.218 776.687L923.798 774.683C858.02 624.305 695.362 535.21 506.148 535.21L506.148 540.21ZM919.218 776.687V771.687H888.25V776.687V781.687H919.218V776.687ZM888.25 776.687L888.005 771.693C888.008 771.693 885.534 771.814 881.429 771.904C877.323 771.995 871.597 772.053 865.094 771.93C851.994 771.68 836.095 770.694 823.919 767.862L822.787 772.732L821.654 777.602C847.867 783.698 888.494 781.681 888.494 781.681L888.25 776.687ZM822.787 772.732L823.919 767.862C790.357 760.057 770.199 749.583 758.562 741.304L755.664 745.379L752.765 749.453C765.622 758.599 787.024 769.549 821.654 777.602L822.787 772.732ZM755.664 745.379L759.28 741.926C700.084 679.937 611.783 641.98 521.966 641.98V646.98V651.98C609.103 651.98 694.775 688.857 752.048 748.832L755.664 745.379ZM521.966 646.98L521.966 641.98C515.968 641.98 509.98 642.113 504.009 642.379L504.231 647.374L504.453 652.369C510.276 652.11 516.116 651.98 521.966 651.98L521.966 646.98ZM504.231 647.374L506.118 642.743L505.152 642.35L503.265 646.98L501.379 651.611L502.344 652.004L504.231 647.374ZM503.265 646.98L501.975 642.15C501.94 642.159 501.248 642.345 499.975 642.693L501.292 647.516L502.609 652.34C503.241 652.167 503.726 652.035 504.055 651.946C504.22 651.902 504.345 651.868 504.43 651.845C504.519 651.821 504.559 651.81 504.556 651.811L503.265 646.98ZM501.292 647.516L501.033 642.523C420.019 646.723 342.237 675.254 288.114 724.93L291.495 728.614L294.876 732.298C346.96 684.492 422.378 656.614 501.551 652.51L501.292 647.516ZM291.495 728.614L289.104 724.223C242.03 749.858 211.943 766.942 153.69 766.942L153.69 771.942L153.69 776.942C214.695 776.942 246.744 758.678 293.886 733.005L291.495 728.614ZM153.69 771.942L153.69 766.942C136.148 766.942 115.783 766.042 96.4718 764.846L96.1628 769.837L95.8539 774.827C115.256 776.028 135.852 776.942 153.69 776.942L153.69 771.942ZM96.1628 769.837L100.7 771.938C166.376 630.144 322.733 545.21 506.148 545.21L506.148 540.21L506.148 535.21C319.868 535.21 159.333 621.559 91.6259 767.735L96.1628 769.837Z" fill="url(#paint2_radial_93_376)" fill-opacity="0.3" mask="url(#path-4-inside-1_93_376)"/>
<path d="M477.957 140.992C522.051 123.66 601.336 133.083 601.336 133.083L450.671 423.341L375.338 568.471L337.672 641.035L318.839 677.318C318.839 677.318 309.636 700.867 300.005 713.6C281.917 737.515 259.05 747.581 236.734 757.099C221.548 763.576 213.225 765.828 197.189 769.754C186.481 772.375 168.717 773.708 168.717 773.708L95.4659 775.218C93.926 775.25 92.8682 773.714 93.6112 772.365C106.95 748.146 200.118 578.926 260.461 467.632C292.666 408.232 310.223 374.66 341.923 314.989C358.323 284.119 366.633 266.327 383.84 235.899C392.289 220.959 405.985 197.936 405.985 197.936C405.985 197.936 422.95 173.773 437.621 162.346C451.683 151.394 461.369 147.512 477.957 140.992Z" fill="url(#paint3_linear_93_376)" fill-opacity="0.8"/>
<path d="M556.163 133.038C568.76 133.132 579.991 133.765 588.071 134.375C592.011 134.672 595.199 134.963 597.429 135.183L448.452 422.19L373.119 567.319L316.62 676.166L316.559 676.284L316.51 676.408C316.51 676.408 316.509 676.41 316.509 676.411C316.508 676.413 316.507 676.417 316.505 676.422C316.501 676.432 316.495 676.448 316.486 676.469C316.469 676.512 316.443 676.576 316.409 676.662C316.341 676.833 316.24 677.087 316.106 677.417C315.84 678.076 315.448 679.035 314.946 680.226C313.943 682.61 312.505 685.921 310.77 689.624C307.278 697.075 302.66 705.945 298.012 712.092C280.364 735.425 258.074 745.279 235.753 754.8C220.746 761.2 212.57 763.414 196.595 767.325C191.403 768.596 184.417 769.571 178.653 770.23C175.788 770.558 173.253 770.804 171.435 770.969C170.526 771.051 169.797 771.113 169.297 771.154C169.047 771.175 168.853 771.19 168.724 771.2C168.67 771.204 168.627 771.207 168.596 771.21L96.2793 772.7C111.227 745.56 202.989 578.876 262.658 468.823C294.871 409.411 312.436 375.822 344.131 316.162C360.589 285.182 368.825 267.53 386.017 237.13C390.23 229.679 395.758 220.203 400.236 212.582C402.475 208.773 404.449 205.431 405.864 203.041C406.572 201.846 407.14 200.889 407.53 200.231C407.726 199.902 407.876 199.647 407.979 199.475C408.024 199.398 408.06 199.338 408.086 199.295C408.117 199.251 408.161 199.19 408.217 199.111C408.342 198.936 408.528 198.675 408.771 198.338C409.256 197.664 409.969 196.686 410.87 195.475C412.674 193.053 415.231 189.705 418.241 186.004C424.296 178.56 432.057 169.848 439.157 164.318C452.918 153.601 462.319 149.825 478.871 143.319C500.44 134.841 530.869 132.849 556.163 133.038Z" stroke="url(#paint4_radial_93_376)" stroke-opacity="0.3" stroke-width="5"/>
<path d="M587.891 155.835L505.638 316.571L670.144 646.981C670.144 646.981 687.982 692.497 716.016 710.252C739.743 725.279 755.39 749.163 777.706 758.681C792.892 765.158 801.215 767.41 817.251 771.335C827.959 773.957 845.723 775.29 845.723 775.29L919.012 776.801C920.543 776.832 921.54 775.201 920.814 773.853L587.891 155.835Z" fill="url(#paint5_linear_93_376)" fill-opacity="0.8"/>
<path d="M508.439 316.586L672.382 645.866L672.432 645.966L672.472 646.069C672.472 646.07 672.473 646.071 672.474 646.073C672.476 646.077 672.478 646.085 672.482 646.094C672.49 646.114 672.502 646.144 672.518 646.184C672.551 646.266 672.601 646.39 672.667 646.553C672.801 646.881 673.001 647.367 673.267 647.995C673.8 649.251 674.595 651.073 675.637 653.317C677.723 657.808 680.792 663.98 684.725 670.695C692.638 684.206 703.858 699.593 717.354 708.14C729.465 715.81 739.51 725.741 749.098 734.707C758.782 743.761 767.983 751.816 778.687 756.382C793.694 762.782 801.87 764.996 817.845 768.907C823.037 770.178 830.023 771.152 835.787 771.811C838.652 772.139 841.187 772.386 843.005 772.551C843.914 772.633 844.643 772.695 845.143 772.736C845.393 772.757 845.586 772.772 845.716 772.782C845.78 772.787 845.828 772.789 845.861 772.792L918.207 774.283L587.949 161.212L508.439 316.586Z" stroke="url(#paint6_radial_93_376)" stroke-opacity="0.3" stroke-width="5"/>
</g>
</g>
<defs>
<filter id="filter0_dddddd_93_376" x="36.3682" y="129.524" width="941.688" height="771.476" filterUnits="userSpaceOnUse" color-interpolation-filters="sRGB">
<feFlood flood-opacity="0" result="BackgroundImageFix"/>
<feColorMatrix in="SourceAlpha" type="matrix" values="0 0 0 0 0 0 0 0 0 0 0 0 0 0 0 0 0 0 127 0" result="hardAlpha"/>
<feOffset dy="1.24074"/>
<feGaussianBlur stdDeviation="1.12153"/>
<feColorMatrix type="matrix" values="0 0 0 0 0 0 0 0 0 0 0 0 0 0 0 0 0 0 0.0601852 0"/>
<feBlend mode="normal" in2="BackgroundImageFix" result="effect1_dropShadow_93_376"/>
<feColorMatrix in="SourceAlpha" type="matrix" values="0 0 0 0 0 0 0 0 0 0 0 0 0 0 0 0 0 0 127 0" result="hardAlpha"/>
<feOffset dy="5.45926"/>
<feGaussianBlur stdDeviation="2.32222"/>
<feColorMatrix type="matrix" values="0 0 0 0 0 0 0 0 0 0 0 0 0 0 0 0 0 0 0.0981481 0"/>
<feBlend mode="normal" in2="effect1_dropShadow_93_376" result="effect2_dropShadow_93_376"/>
<feColorMatrix in="SourceAlpha" type="matrix" values="0 0 0 0 0 0 0 0 0 0 0 0 0 0 0 0 0 0 127 0" result="hardAlpha"/>
<feOffset dy="13.4"/>
<feGaussianBlur stdDeviation="4.63125"/>
<feColorMatrix type="matrix" values="0 0 0 0 0 0 0 0 0 0 0 0 0 0 0 0 0 0 0.125 0"/>
<feBlend mode="normal" in2="effect2_dropShadow_93_376" result="effect3_dropShadow_93_376"/>
<feColorMatrix in="SourceAlpha" type="matrix" values="0 0 0 0 0 0 0 0 0 0 0 0 0 0 0 0 0 0 127 0" result="hardAlpha"/>
<feOffset dy="25.8074"/>
<feGaussianBlur stdDeviation="9.07778"/>
<feColorMatrix type="matrix" values="0 0 0 0 0 0 0 0 0 0 0 0 0 0 0 0 0 0 0.151852 0"/>
<feBlend mode="normal" in2="effect3_dropShadow_93_376" result="effect4_dropShadow_93_376"/>
<feColorMatrix in="SourceAlpha" type="matrix" values="0 0 0 0 0 0 0 0 0 0 0 0 0 0 0 0 0 0 127 0" result="hardAlpha"/>
<feOffset dy="43.4259"/>
<feGaussianBlur stdDeviation="16.691"/>
<feColorMatrix type="matrix" values="0 0 0 0 0 0 0 0 0 0 0 0 0 0 0 0 0 0 0.189815 0"/>
<feBlend mode="normal" in2="effect4_dropShadow_93_376" result="effect5_dropShadow_93_376"/>
<feColorMatrix in="SourceAlpha" type="matrix" values="0 0 0 0 0 0 0 0 0 0 0 0 0 0 0 0 0 0 127 0" result="hardAlpha"/>
<feOffset dy="67"/>
<feGaussianBlur stdDeviation="28.5"/>
<feColorMatrix type="matrix" values="0 0 0 0 0 0 0 0 0 0 0 0 0 0 0 0 0 0 0.25 0"/>
<feBlend mode="normal" in2="effect5_dropShadow_93_376" result="effect6_dropShadow_93_376"/>
<feBlend mode="normal" in="SourceGraphic" in2="effect6_dropShadow_93_376" result="shape"/>
</filter>
<linearGradient id="paint0_linear_93_376" x1="507" y1="43" x2="507" y2="963" gradientUnits="userSpaceOnUse">
<stop stop-color="#FFFBDB"/>
<stop offset="0.480769" stop-color="#3A00FF" stop-opacity="0.9"/>
<stop offset="1" stop-color="#F5F5FF"/>
</linearGradient>
<linearGradient id="paint1_linear_93_376" x1="757.071" y1="575.355" x2="712.709" y2="843.861" gradientUnits="userSpaceOnUse">
<stop stop-color="white"/>
<stop offset="0.192308" stop-color="#7541EF"/>
<stop offset="0.475962" stop-color="#3C03C1"/>
<stop offset="0.740385" stop-color="#885EE9"/>
<stop offset="1" stop-color="white"/>
</linearGradient>
<radialGradient id="paint2_radial_93_376" cx="0" cy="0" r="1" gradientTransform="matrix(-146.03 56.7844 -191.122 -27.075 456.348 659.733)" gradientUnits="userSpaceOnUse">
<stop stop-color="white"/>
<stop offset="1" stop-color="#FFF9F9" stop-opacity="0"/>
</radialGradient>
<linearGradient id="paint3_linear_93_376" x1="601.336" y1="130.526" x2="153.69" y2="714.998" gradientUnits="userSpaceOnUse">
<stop stop-color="#FFFFF6"/>
<stop offset="0.177885" stop-color="#F4F4F4" stop-opacity="0.786667"/>
<stop offset="0.447115" stop-color="#7541EF" stop-opacity="0.6"/>
<stop offset="0.610577" stop-color="#3C03C1"/>
<stop offset="0.740385" stop-color="#885EE9"/>
<stop offset="1" stop-color="white"/>
</linearGradient>
<radialGradient id="paint4_radial_93_376" cx="0" cy="0" r="1" gradientUnits="userSpaceOnUse" gradientTransform="translate(318.987 455.979) rotate(121.114) scale(180.602 142.668)">
<stop stop-color="white"/>
<stop offset="1" stop-color="#FFF9F9" stop-opacity="0"/>
</radialGradient>
<linearGradient id="paint5_linear_93_376" x1="503.266" y1="227.806" x2="856.796" y2="730.025" gradientUnits="userSpaceOnUse">
<stop stop-color="white"/>
<stop offset="0.192308" stop-color="#7541EF"/>
<stop offset="0.475962" stop-color="#3C03C1" stop-opacity="0.6"/>
<stop offset="0.740385" stop-color="#885EE9"/>
<stop offset="1" stop-color="white"/>
</linearGradient>
<radialGradient id="paint6_radial_93_376" cx="0" cy="0" r="1" gradientUnits="userSpaceOnUse" gradientTransform="translate(695.453 457.561) rotate(58.8856) scale(180.602 142.668)">
<stop stop-color="white"/>
<stop offset="1" stop-color="#FFF9F9" stop-opacity="0"/>
</radialGradient>
</defs>
</svg>
