<svg width="512" height="512" viewBox="0 0 512 512" fill="none" xmlns="http://www.w3.org/2000/svg">
<rect width="512" height="512" fill="#0E0B0D"/>
<mask id="mask0_94_521" style="mask-type:alpha" maskUnits="userSpaceOnUse" x="0" y="0" width="512" height="512">
<path d="M512 0H0V512H512V0Z" fill="white"/>
</mask>
<g mask="url(#mask0_94_521)">
<path d="M512 0H0V512H512V0Z" fill="url(#paint0_linear_94_521)"/>
<path d="M253.5 31.5C375.003 31.5 473.5 129.997 473.5 251.5C473.5 373.003 375.003 471.5 253.5 471.5C131.997 471.5 33.5 373.003 33.5 251.5C33.5 129.997 131.997 31.5 253.5 31.5Z" stroke="#4B33FF" stroke-width="20"/>
<path d="M253.074 270.105C346.954 270.105 427.215 314.286 459.61 388.344H444.125C444.125 388.344 424.123 389.327 411.394 386.367C394.338 382.4 383.947 377.04 377.824 372.683C348.707 342.197 305.218 323.491 260.983 323.491C258.021 323.491 255.065 323.557 252.117 323.688L251.633 323.491C251.626 323.493 251.285 323.586 250.646 323.76C210.603 325.836 172.309 339.936 145.757 364.301C122.198 377.131 106.664 385.971 76.845 385.971C67.9999 385.971 57.7595 385.517 48.0813 384.918C81.4273 312.925 160.65 270.105 253.074 270.105Z" fill="#442BFF" fill-opacity="0.8"/>
<path d="M238.978 70.4961C261.025 61.8303 300.668 66.5416 300.668 66.5416L159.419 338.659C159.419 338.659 154.818 350.434 150.003 356.8C140.959 368.758 129.525 373.791 118.367 378.55C110.774 381.788 106.612 382.914 98.5944 384.877C93.2404 386.188 84.3583 386.854 84.3583 386.854L49.4658 387.574C47.9259 387.605 46.8992 386.013 47.6421 384.664C56.6897 368.233 101.106 287.531 130.23 233.816C146.333 204.116 155.111 187.33 170.961 157.495C179.161 142.059 183.317 133.164 191.92 117.95C196.144 110.48 202.993 98.9683 202.993 98.9683C202.993 98.9683 211.475 86.8864 218.81 81.1732C225.841 75.6974 230.684 73.7561 238.978 70.4961Z" fill="#442BFF" fill-opacity="0.8"/>
<path d="M293.946 77.9175L252.819 158.285L335.072 323.49C335.072 323.49 343.991 346.249 358.008 355.126C369.872 362.64 377.695 374.582 388.853 379.341C396.446 382.579 400.608 383.705 408.625 385.668C413.979 386.978 422.862 387.645 422.862 387.645L457.792 388.365C459.323 388.397 460.32 386.766 459.594 385.417L293.946 77.9175Z" fill="#442BFF" fill-opacity="0.8"/>
<path d="M316.055 279.686C379.491 294.506 430.71 331.941 455.73 385.822L422.985 385.147C422.976 385.146 422.966 385.146 422.956 385.145C422.892 385.14 422.797 385.133 422.674 385.123C422.427 385.102 422.066 385.072 421.616 385.031C420.714 384.949 419.457 384.827 418.036 384.665C415.162 384.336 411.735 383.855 409.22 383.24C408.479 383.058 407.771 382.881 407.092 382.712C396.44 379.854 388.855 376.479 383.537 373.382C380.822 371.412 378.176 369.033 375.403 366.44C370.648 361.994 365.525 356.927 359.346 353.014C352.859 348.905 347.372 341.428 343.441 334.716C341.499 331.401 339.983 328.351 338.953 326.132C338.438 325.024 338.046 324.126 337.785 323.509C337.654 323.201 337.556 322.963 337.492 322.805C337.46 322.726 337.436 322.667 337.42 322.628C337.413 322.61 337.407 322.596 337.404 322.587C337.402 322.583 337.401 322.58 337.4 322.579V322.578L337.36 322.475L337.31 322.376L316.055 279.686ZM157.201 337.507L157.139 337.625L157.09 337.749V337.75C157.09 337.75 157.089 337.752 157.088 337.754C157.087 337.759 157.084 337.767 157.08 337.777C157.072 337.797 157.06 337.828 157.043 337.87C157.01 337.953 156.96 338.078 156.894 338.24C156.763 338.564 156.569 339.039 156.321 339.628C155.824 340.809 155.111 342.449 154.252 344.282C152.513 347.993 150.249 352.329 148.008 355.292C144.3 360.196 140.171 363.879 135.782 366.867C116.88 376.997 102.198 383.471 76.8452 383.471C69.1873 383.471 60.453 383.127 51.9331 382.642C77.0149 331.393 126.133 295.502 186.802 280.478L157.201 337.507ZM253.074 272.605C272.7 272.605 291.706 274.55 309.781 278.302L332.79 324.514C332.808 324.56 332.831 324.619 332.86 324.691C332.933 324.87 333.041 325.13 333.181 325.461C333.462 326.124 333.877 327.074 334.417 328.238C335.498 330.564 337.086 333.759 339.126 337.243C340.077 338.866 341.136 340.569 342.297 342.288C317.875 328.691 289.583 320.991 260.983 320.991C258.17 320.991 255.361 321.052 252.56 321.168L251.798 320.859L250.988 321.076C250.974 321.079 250.712 321.15 250.243 321.278C215.125 323.146 181.241 334.16 155.248 353.279C156.575 350.954 157.786 348.525 158.781 346.403C159.674 344.497 160.413 342.794 160.929 341.568C161.187 340.954 161.391 340.459 161.53 340.115C161.599 339.943 161.653 339.808 161.69 339.715C161.692 339.709 161.694 339.703 161.696 339.698L193.215 278.976C212.228 274.783 232.304 272.605 253.074 272.605ZM433.539 342.322C404.132 308.133 361.954 284.517 313.184 273.919L255.735 158.533L294.403 84.0376L433.539 342.322ZM278.072 67.769C284.335 67.8158 289.922 68.1309 293.942 68.4341C294.99 68.5132 295.932 68.5922 296.75 68.6646L294.321 73.3423L293.889 72.5405L291.72 76.7788L250.593 157.147L250.019 158.27L250.125 158.485L189.844 274.617C144.068 285.146 104.285 307.233 75.6958 338.822C93.0669 307.181 115.371 266.468 132.428 235.007C148.538 205.295 157.325 188.492 173.169 158.667C181.427 143.123 185.508 134.367 194.096 119.18C196.198 115.464 198.957 110.734 201.196 106.924C202.314 105.022 203.3 103.352 204.007 102.158C204.361 101.561 204.645 101.082 204.84 100.753C204.938 100.589 205.013 100.462 205.064 100.376C205.073 100.361 205.081 100.347 205.088 100.334C205.099 100.319 205.113 100.3 205.127 100.28C205.188 100.194 205.279 100.066 205.399 99.8999C205.639 99.5677 205.991 99.0836 206.438 98.4839C207.332 97.2835 208.599 95.6239 210.09 93.7905C213.107 90.0815 216.914 85.8192 220.346 83.146C227.077 77.9042 231.635 76.0687 239.893 72.8228C250.438 68.6779 265.444 67.6748 278.072 67.769Z" stroke="url(#paint1_radial_94_521)" stroke-opacity="0.3" stroke-width="5"/>
</g>
<defs>
<linearGradient id="paint0_linear_94_521" x1="256" y1="0" x2="256" y2="512" gradientUnits="userSpaceOnUse">
<stop stop-color="white"/>
<stop offset="1" stop-color="#C8B7F0"/>
</linearGradient>
<radialGradient id="paint1_radial_94_521" cx="0" cy="0" r="1" gradientUnits="userSpaceOnUse" gradientTransform="translate(347.727 228.781) rotate(58.8856) scale(90.3009 71.334)">
<stop stop-color="white"/>
<stop offset="1" stop-color="#FFF9F9" stop-opacity="0"/>
</radialGradient>
</defs>
</svg>
